<?xml version="1.0" standalone="no"?>
<!DOCTYPE svg PUBLIC "-//W3C//DTD SVG 20010904//EN"
 "http://www.w3.org/TR/2001/REC-SVG-20010904/DTD/svg10.dtd">
<svg version="1.0" xmlns="http://www.w3.org/2000/svg"
 width="527.000000pt" height="527.000000pt" viewBox="0 0 527.000000 527.000000"
 preserveAspectRatio="xMidYMid meet">
<metadata>
Created by potrace 1.11, written by Peter Selinger 2001-2013
</metadata>
<g transform="translate(0.000000,527.000000) scale(0.100000,-0.100000)"
fill="#000000" stroke="none">
<path d="M1152 5023 c-68 -107 -158 -248 -223 -351 -20 -31 -132 -208 -250
-392 -117 -184 -302 -476 -411 -649 -110 -172 -197 -320 -194 -327 4 -12 65
-14 341 -14 l335 0 1 -612 c1 -337 2 -624 3 -638 18 -174 23 -205 52 -330 26
-106 63 -226 91 -290 43 -97 109 -232 141 -285 94 -157 273 -369 422 -500 72
-63 239 -177 346 -235 312 -170 632 -249 985 -244 79 1 160 4 179 7 19 3 62 9
95 12 162 18 457 115 632 206 72 38 271 163 283 178 3 3 37 32 75 63 191 154
391 403 505 629 65 127 147 348 166 449 3 14 9 41 14 60 11 47 29 164 37 253
4 39 7 537 7 1104 0 822 -2 1035 -12 1045 -18 18 -2390 21 -2425 4 l-22 -12
-5 -356 -5 -356 -289 456 c-159 251 -308 486 -332 522 -35 55 -196 309 -229
363 -114 184 -222 344 -233 344 -7 0 -44 -47 -80 -104z m1168 -1757 c0 -11 1
-248 3 -526 l3 -505 24 -55 c85 -197 269 -304 469 -273 160 25 288 131 344
283 9 25 19 59 21 75 2 17 5 254 5 528 l1 497 349 0 c270 0 350 -3 353 -12 7
-21 1 -1188 -6 -1238 -64 -463 -374 -829 -806 -953 -116 -34 -146 -38 -290
-42 -231 -6 -436 50 -624 172 -108 70 -166 120 -270 236 -71 80 -156 239 -200
373 -52 161 -54 192 -55 855 l-1 607 340 0 340 0 0 -22z"/>
</g>
</svg>
