<svg width="74" height="52" viewBox="0 0 74 52" fill="none" xmlns="http://www.w3.org/2000/svg">
<path d="M27 44.2453V45H4V44.2453C4 39.566 5.98053 35.4151 9.0472 33C10.7722 34.8113 13.0083 35.9434 15.5 35.9434C17.9917 35.9434 20.2278 34.8113 21.9528 33C22.5917 33.4528 23.1027 34.0566 23.6139 34.6604C25.7222 37.0755 27 40.4717 27 44.2453Z" stroke="#EDEFFF" stroke-width="2" stroke-miterlimit="10" stroke-linecap="square"/>
<path d="M15.5 31C19.0899 31 22 28.0899 22 24.5C22 20.9101 19.0899 18 15.5 18C11.9101 18 9 20.9101 9 24.5C9 28.0899 11.9101 31 15.5 31Z" stroke="#EDEFFF" stroke-width="2" stroke-miterlimit="10" stroke-linecap="square"/>
<path d="M70 44.2453V45H47V44.2453C47 39.566 48.9805 35.4151 52.0472 33C53.7722 34.8113 56.0083 35.9434 58.5 35.9434C60.9917 35.9434 63.2278 34.8113 64.9528 33C65.5917 33.4528 66.1027 34.0566 66.6139 34.6604C68.7222 37.0755 70 40.4717 70 44.2453Z" stroke="#EDEFFF" stroke-width="2" stroke-miterlimit="10" stroke-linecap="square"/>
<path d="M58.5 31C62.0899 31 65 28.0899 65 24.5C65 20.9101 62.0899 18 58.5 18C54.9101 18 52 20.9101 52 24.5C52 28.0899 54.9101 31 58.5 31Z" stroke="#EDEFFF" stroke-width="2" stroke-miterlimit="10" stroke-linecap="square"/>
<path d="M0 45H74" stroke="#2534B6" stroke-width="2" stroke-miterlimit="10"/>
<path d="M13 51H44" stroke="#2534B6" stroke-width="2" stroke-miterlimit="10"/>
<path d="M49 51H58" stroke="#2534B6" stroke-width="2" stroke-miterlimit="10"/>
<path d="M33 42H41" stroke="#009EBF" stroke-width="2" stroke-miterlimit="10" stroke-linecap="square"/>
<path d="M37.0665 33.502C34.5231 33.502 32.1321 32.9655 29.9698 31.9998C22.6008 33.6492 21.9883 38.0182 22.0002 39.5C22.0027 39.8152 22.0002 45 22.0002 45H52.0671C52.0671 45 52.0642 39.8152 52.0671 39.5C52.0806 38.0181 51.4777 33.649 44.1631 31.9998C42.0008 32.9655 39.6098 33.502 37.0665 33.502Z" fill="#EDEFFF" stroke="#2534B6" stroke-width="2" stroke-miterlimit="10" stroke-linecap="round" stroke-linejoin="round"/>
<path d="M37.0334 29C44.2131 29 50.0334 23.1797 50.0334 16C50.0334 8.8203 44.2131 3 37.0334 3C29.8537 3 24.0334 8.8203 24.0334 16C24.0334 23.1797 29.8537 29 37.0334 29Z" stroke="#2534B6" stroke-width="2" stroke-miterlimit="10" stroke-linecap="round" stroke-linejoin="round"/>
<path d="M51.0334 4C50.0334 5 48.5334 5.5 47.0334 6C48.5334 7.5 51.0334 9 54.0334 9C51.0334 11 46.0334 11 44.0334 11C44.6873 12 45.3027 13.0004 46.0334 14C35.0334 14.5 32.4567 12.0003 29.0334 10C28.0334 13.5 25.9948 14.9996 24.0334 16C24.0334 7.66695 26.8796 1 36.0334 1C45.1873 1 45.0334 4.5 51.0334 4Z" fill="#EDEFFF"/>
<path d="M51.0334 4L51.7406 4.70711L53.6709 2.77674L50.9504 3.00345L51.0334 4ZM54.0334 9L54.5881 9.83205L57.3363 8H54.0334V9ZM24.0334 16H23.0334C23.0334 16.348 23.2144 16.671 23.5111 16.8528C23.8079 17.0345 24.1778 17.0489 24.4878 16.8908L24.0334 16ZM47.0334 6L46.7172 5.05132L45.1822 5.56298L46.3263 6.70711L47.0334 6ZM44.0334 11V10H42.1848L43.1965 11.5473L44.0334 11ZM29.0334 10L29.538 9.13659L28.4258 8.48673L28.0719 9.72528L29.0334 10ZM46.0334 14L46.0789 14.999L47.9406 14.9143L46.8407 13.4099L46.0334 14ZM25.0334 16C25.0334 11.9161 25.7366 8.40549 27.4257 5.94035C29.068 3.54345 31.7356 2 36.0334 2V0C31.1774 0 27.845 1.79003 25.7758 4.80987C23.7534 7.76146 23.0334 11.7509 23.0334 16H25.0334ZM36.0334 2C40.4417 2 42.5543 2.83262 44.3151 3.60355C46.1821 4.42097 47.8458 5.2691 51.1165 4.99655L50.9504 3.00345C48.221 3.2309 46.9617 2.57903 45.1172 1.77145C43.1665 0.91738 40.7791 0 36.0334 0V2ZM50.3263 3.29289C49.5257 4.09349 48.2788 4.53079 46.7172 5.05132L47.3497 6.94868C48.7881 6.46921 50.5412 5.90651 51.7406 4.70711L50.3263 3.29289ZM46.3263 6.70711C47.9602 8.34093 50.7009 10 54.0334 10V8C51.366 8 49.1067 6.65907 47.7406 5.29289L46.3263 6.70711ZM53.4787 8.16795C52.1685 9.04143 50.3492 9.51572 48.5263 9.75877C46.7236 9.99912 45.0328 10 44.0334 10V12C45.0341 12 46.8433 12.0009 48.7906 11.7412C50.7177 11.4843 52.8984 10.9586 54.5881 9.83205L53.4787 8.16795ZM28.0719 9.72528C27.1722 12.8744 25.3837 14.1887 23.5791 15.1092L24.4878 16.8908C26.606 15.8104 28.8947 14.1256 29.995 10.2747L28.0719 9.72528ZM43.1965 11.5473C43.8312 12.518 44.4749 13.5625 45.2262 14.5901L46.8407 13.4099C46.1306 12.4383 45.5434 11.4819 44.8704 10.4527L43.1965 11.5473ZM45.988 13.001C40.5633 13.2476 37.3007 12.75 35.0073 11.9885C32.6914 11.2197 31.3417 10.1905 29.538 9.13659L28.5289 10.8634C30.1485 11.8097 31.7987 13.0306 34.3771 13.8867C36.9778 14.7501 40.5036 15.2524 46.0789 14.999L45.988 13.001Z" fill="#2534B6"/>
<path d="M32.0334 18V19" stroke="#2534B6" stroke-width="2" stroke-linecap="round"/>
<path d="M42.0334 18V19" stroke="#2534B6" stroke-width="2" stroke-linecap="round"/>
</svg>
