<svg width="150" height="70" viewBox="0 0 180 80" fill="none" xmlns="http://www.w3.org/2000/svg">
<path style="transform: scale(0.62) translate(20px, 24px )" d="M44.8468 13.3833H33.319C33.2288 13.3805 33.1389 13.396 33.0548 13.4287C32.9706 13.4615 32.8938 13.5109 32.829 13.5741C32.7642 13.6372 32.7127 13.7128 32.6776 13.7963C32.6424 13.8798 32.6243 13.9696 32.6244 14.0603V23.8302L17.6234 0.180003C17.5933 0.125465 17.5493 0.0800059 17.4959 0.0483507C17.4424 0.0166954 17.3815 0 17.3195 0C17.2574 0 17.1965 0.0166954 17.1431 0.0483507C17.0896 0.0800059 17.0456 0.125465 17.0155 0.180003L1.05592 25.3166C1.01746 25.3694 0.994554 25.432 0.989813 25.4973C0.985072 25.5625 0.998691 25.6278 1.02911 25.6856C1.05954 25.7435 1.10554 25.7916 1.16187 25.8244C1.2182 25.8573 1.28258 25.8735 1.34768 25.8714H10.5518V41.5102C10.5527 49.0659 13.5409 56.3118 18.859 61.6545C24.1772 66.9972 31.3899 69.9991 38.911 70V70C42.6351 70 46.3229 69.2631 49.7635 67.8313C53.2042 66.3996 56.3305 64.3011 58.9639 61.6555C61.5973 59.01 63.6862 55.8693 65.1114 52.4128C66.5366 48.9563 67.2701 45.2516 67.2701 41.5102V14.0603C67.2701 13.8807 67.1991 13.7086 67.0728 13.5816C66.9464 13.4547 66.775 13.3833 66.5963 13.3833H44.8468ZM54.7594 41.5905C54.7594 45.8131 53.0897 49.8628 50.1175 52.8487C47.1454 55.8345 43.1142 57.512 38.911 57.512V57.512C34.7077 57.512 30.6766 55.8345 27.7044 52.8487C24.7322 49.8628 23.0625 45.8131 23.0625 41.5905V25.8888H32.6417V39.2911C32.6417 40.917 33.2847 42.4764 34.4291 43.6261C35.5736 44.7758 37.1258 45.4217 38.7443 45.4217C40.3627 45.4217 41.9149 44.7758 43.0594 43.6261C44.2038 42.4764 44.8468 40.917 44.8468 39.2911V25.8714H54.7594V41.5905Z" fill="#FE334A"/>

</svg>
