<svg width="76" height="59" viewBox="0 0 76 59" fill="none" xmlns="http://www.w3.org/2000/svg">
<path d="M0 51.4106H74" stroke="#2534B6" stroke-width="2" stroke-miterlimit="10"/>
<path d="M13 57.4106H44" stroke="#2534B6" stroke-width="2" stroke-miterlimit="10"/>
<path d="M49 57.4106H58" stroke="#2534B6" stroke-width="2" stroke-miterlimit="10"/>
<path d="M41.0481 22.0815L45 21.0226" stroke="#2534B6" stroke-width="2" stroke-miterlimit="10" stroke-linecap="square"/>
<path d="M13.612 23.3149L5.70821 25.4327C2.55564 26.2774 0.68476 29.5179 1.52949 32.6705C2.37422 35.823 5.61467 37.6939 8.76725 36.8492L16.671 34.7314L13.612 23.3149Z" fill="#EDEFFF" stroke="#2534B6" stroke-width="2" stroke-miterlimit="10" stroke-linecap="square"/>
<path d="M33 29.6176L30 19.9575C32.4629 19.2468 35.0295 20.6961 35.693 23.1721L35.9671 24.1951C36.5861 26.5051 35.2792 28.8935 33 29.6176Z" fill="#EDEFFF" stroke="#2534B6" stroke-width="2" stroke-miterlimit="10" stroke-linecap="square"/>
<path d="M13.6121 23.3149L27.7298 12.1976L34.3611 37.5213L16.6711 34.7314L13.6121 23.3149Z" stroke="#2534B6" stroke-width="2" stroke-miterlimit="10" stroke-linecap="square"/>
<path d="M8.04483 38.465C7.84174 38.2062 7.66235 37.9669 7.50977 37.7508L15.8505 35.5159C15.8398 36.0358 15.8701 36.6026 15.9656 37.174C16.1695 38.3944 16.6982 39.7827 17.9294 40.6884C19.0843 41.538 19.9193 42.3252 20.3192 43.134C20.6714 43.8463 20.7314 44.6635 20.0794 45.7928C19.7697 46.3293 19.4212 46.6146 19.0816 46.7663C18.7334 46.9219 18.3173 46.9711 17.8297 46.9067C16.8239 46.7739 15.68 46.1783 14.7115 45.4451C14.0502 44.9446 12.1925 43.1389 10.4073 41.2014C9.52544 40.2444 8.686 39.2818 8.04483 38.465Z" stroke="#2534B6" stroke-width="2"/>
<path d="M39.8799 26.7476L43.423 28.7932" stroke="#2534B6" stroke-width="2" stroke-miterlimit="10" stroke-linecap="square"/>
<path d="M38.5864 18.5593L40.6321 15.0162" stroke="#2534B6" stroke-width="2" stroke-miterlimit="10" stroke-linecap="square"/>
<path d="M58.0718 3L71.9282 11C72.8808 11.55 73.2102 12.7794 72.6602 13.7321L66.6602 24.1244C66.1102 25.077 64.8808 25.4064 63.9282 24.8564L50.0718 16.8564C49.1191 16.3064 48.7897 15.077 49.3397 14.1244L55.3397 3.73205C55.8897 2.77942 57.1191 2.45 58.0718 3Z" stroke="#2534B6" stroke-width="2" stroke-linecap="round" stroke-linejoin="round"/>
<path d="M73.139 12.9028L60.5 14.7942L55.8185 2.90282" fill="#EDEFFF"/>
<path d="M73.139 12.9028L60.5 14.7942L55.8185 2.90282" stroke="#2534B6" stroke-width="2" stroke-linecap="round" stroke-linejoin="round"/>
</svg>
