<svg width="398" height="1000" viewBox="0 0 398 1000" fill="none" xmlns="http://www.w3.org/2000/svg">
<mask id="mask0" mask-type="alpha" maskUnits="userSpaceOnUse" x="0" y="0" width="398" height="1000">
<rect width="398" height="1000" fill="#C4C4C4"/>
</mask>
<g mask="url(#mask0)">
<g opacity="0.2">
<g opacity="0.3">
<path opacity="0.3" d="M-92.6343 956.528L23.4957 938.618C24.027 939.841 24.8475 940.917 25.8867 941.752C26.9259 942.588 28.1526 943.159 29.4613 943.415C30.77 943.672 32.1213 943.607 33.3992 943.225C34.677 942.844 35.843 942.157 36.7967 941.225C37.7505 940.293 38.4634 939.143 38.8742 937.874C39.2851 936.606 39.3814 935.256 39.155 933.942C38.9287 932.628 38.3863 931.388 37.5746 930.33C36.763 929.272 35.7064 928.427 34.4957 927.868L65.2257 776.688C66.4469 776.638 67.6418 776.317 68.7235 775.749C69.8052 775.18 70.7467 774.377 71.4795 773.399C72.2123 772.421 72.7181 771.292 72.96 770.094C73.202 768.896 73.1741 767.659 72.8784 766.473C72.5827 765.287 72.0266 764.182 71.2505 763.238C70.4743 762.294 69.4977 761.535 68.3914 761.015C67.2852 760.495 66.0771 760.229 64.8549 760.235C63.6327 760.24 62.4272 760.518 61.3257 761.048L-9.77426 650.828C-8.7771 649.925 -8.01699 648.791 -7.56076 647.526C-7.10452 646.261 -6.96609 644.903 -7.15768 643.572C-7.34927 642.24 -7.86502 640.976 -8.65954 639.891C-9.45407 638.806 -10.503 637.933 -11.7143 637.348L41.7058 453.908C42.0208 453.948 42.3381 453.968 42.6557 453.968C44.2061 453.968 45.725 453.531 47.0376 452.706C48.3502 451.881 49.4031 450.702 50.075 449.305C50.747 447.908 51.0106 446.349 50.8356 444.809C50.6606 443.268 50.054 441.809 49.0857 440.598L120.086 364.258C121.735 365.376 123.735 365.858 125.713 365.612C127.691 365.367 129.512 364.411 130.838 362.922C132.164 361.434 132.903 359.515 132.92 357.521C132.936 355.528 132.227 353.597 130.926 352.088L241.696 222.878C242.953 223.656 244.398 224.081 245.876 224.107C247.355 224.134 248.814 223.761 250.098 223.027C251.382 222.294 252.445 221.228 253.174 219.941C253.903 218.654 254.272 217.195 254.241 215.716C254.21 214.237 253.78 212.794 252.998 211.539C252.215 210.284 251.108 209.264 249.794 208.585C248.48 207.906 247.007 207.595 245.531 207.683C244.055 207.772 242.629 208.257 241.406 209.088L164.576 126.618C165.448 125.528 166.028 124.234 166.262 122.858C166.496 121.482 166.376 120.07 165.912 118.753C165.449 117.436 164.658 116.259 163.615 115.333C162.571 114.407 161.308 113.761 159.946 113.458L179.476 -155.202L178.266 -155.292C179.458 -155.308 180.633 -155.583 181.709 -156.098C182.784 -156.612 183.735 -157.355 184.496 -158.273C185.256 -159.192 185.808 -160.265 186.113 -161.417C186.418 -162.57 186.469 -163.776 186.262 -164.95C186.055 -166.125 185.595 -167.24 184.914 -168.219C184.234 -169.198 183.348 -170.018 182.32 -170.621C181.291 -171.224 180.143 -171.597 178.956 -171.713C177.77 -171.828 176.572 -171.685 175.446 -171.292L130.106 -246.522C130.974 -247.272 131.676 -248.196 132.165 -249.234C132.654 -250.271 132.92 -251.4 132.945 -252.547C132.971 -253.694 132.755 -254.834 132.312 -255.892C131.87 -256.951 131.21 -257.905 130.376 -258.692L189.556 -343.082C190.887 -342.415 192.374 -342.12 193.859 -342.231C195.344 -342.342 196.771 -342.853 197.988 -343.711C199.205 -344.569 200.167 -345.741 200.771 -347.102C201.374 -348.464 201.597 -349.963 201.416 -351.441C201.234 -352.919 200.655 -354.32 199.74 -355.495C198.825 -356.67 197.608 -357.575 196.22 -358.112C194.831 -358.65 193.323 -358.801 191.855 -358.55C190.387 -358.298 189.016 -357.652 187.886 -356.682L93.8858 -438.372C94.544 -439.408 94.9618 -440.579 95.1085 -441.798C95.2552 -443.017 95.127 -444.253 94.7334 -445.416C94.3398 -446.578 93.6908 -447.638 92.8339 -448.517C91.9771 -449.396 90.9343 -450.073 89.782 -450.496C88.6297 -450.919 87.3972 -451.079 86.175 -450.964C84.9529 -450.848 83.7721 -450.461 82.7193 -449.829C81.6666 -449.198 80.7686 -448.339 80.0914 -447.315C79.4142 -446.291 78.9748 -445.128 78.8057 -443.912L-180.414 -440.912C-180.631 -442.477 -181.294 -443.946 -182.323 -445.144C-183.352 -446.343 -184.704 -447.22 -186.218 -447.67C-187.732 -448.121 -189.344 -448.126 -190.861 -447.686C-192.378 -447.246 -193.736 -446.378 -194.773 -445.187C-195.81 -443.995 -196.483 -442.531 -196.71 -440.968C-196.938 -439.405 -196.711 -437.809 -196.056 -436.372C-195.402 -434.934 -194.347 -433.715 -193.019 -432.861C-191.69 -432.006 -190.144 -431.552 -188.564 -431.552C-187.41 -431.548 -186.268 -431.79 -185.214 -432.262L-118.324 -329.772C-119.495 -328.734 -120.344 -327.383 -120.774 -325.879C-121.203 -324.374 -121.194 -322.778 -120.747 -321.279C-120.301 -319.779 -119.436 -318.438 -118.254 -317.413C-117.072 -316.388 -115.622 -315.722 -114.074 -315.492L-114.074 -160.722C-115.855 -160.455 -117.499 -159.611 -118.754 -158.32C-120.009 -157.029 -120.806 -155.362 -121.023 -153.574C-121.24 -151.787 -120.865 -149.977 -119.954 -148.424C-119.044 -146.87 -117.65 -145.657 -115.984 -144.972L-145.194 -26.2923C-145.444 -26.2923 -145.704 -26.2923 -145.964 -26.2923C-148.031 -26.2946 -150.024 -25.5189 -151.545 -24.1196C-153.066 -22.7202 -154.005 -20.7996 -154.175 -18.7396C-154.345 -16.6795 -153.734 -14.6309 -152.463 -13.0009C-151.192 -11.371 -149.354 -10.2791 -147.314 -9.94232L-322.494 272.018C-323.616 271.531 -324.832 271.3 -326.055 271.343C-327.277 271.385 -328.474 271.699 -329.56 272.262C-330.645 272.825 -331.592 273.623 -332.33 274.598C-333.069 275.573 -333.581 276.7 -333.829 277.898C-334.077 279.095 -334.055 280.333 -333.765 281.521C-333.475 282.709 -332.923 283.817 -332.151 284.766C-331.378 285.714 -330.404 286.478 -329.3 287.002C-328.195 287.527 -326.987 287.799 -325.764 287.798C-324.145 287.801 -322.562 287.325 -321.214 286.428L-137.324 490.688C-138.496 492.098 -139.161 493.861 -139.211 495.694C-139.262 497.527 -138.696 499.324 -137.604 500.798L-220.214 582.798C-221.436 581.882 -222.89 581.324 -224.411 581.188C-225.932 581.052 -227.462 581.342 -228.827 582.026C-230.193 582.711 -231.34 583.762 -232.142 585.062C-232.943 586.362 -233.367 587.86 -233.364 589.388C-233.363 590.868 -232.963 592.321 -232.206 593.593C-231.45 594.865 -230.364 595.91 -229.064 596.618L-265.474 696.088C-266.024 695.975 -266.583 695.918 -267.144 695.918C-268.256 695.926 -269.355 696.16 -270.375 696.605C-271.394 697.05 -272.313 697.697 -273.075 698.507C-273.837 699.316 -274.428 700.272 -274.81 701.317C-275.193 702.361 -275.36 703.472 -275.301 704.583C-275.242 705.694 -274.959 706.781 -274.468 707.779C-273.977 708.777 -273.289 709.665 -272.445 710.39C-271.602 711.115 -270.62 711.661 -269.559 711.996C-268.499 712.331 -267.381 712.447 -266.274 712.338L-218.464 896.858C-219.656 897.357 -220.713 898.13 -221.55 899.114C-222.388 900.097 -222.982 901.264 -223.284 902.52C-223.587 903.776 -223.59 905.086 -223.292 906.343C-222.995 907.6 -222.405 908.77 -221.572 909.757C-220.739 910.744 -219.685 911.521 -218.495 912.025C-217.306 912.53 -216.014 912.747 -214.725 912.659C-213.437 912.572 -212.186 912.182 -211.076 911.521C-209.966 910.861 -209.026 909.949 -208.334 908.858L-108.654 953.798C-108.944 954.641 -109.093 955.526 -109.094 956.418C-109.109 958.6 -108.256 960.7 -106.723 962.253C-105.19 963.807 -103.102 964.688 -100.919 964.703C-98.7365 964.717 -96.6374 963.864 -95.0837 962.331C-93.5299 960.798 -92.6489 958.71 -92.6343 956.528ZM150.006 122.668L135.166 127.028L48.8258 59.0277L150.516 118.478C150.121 119.45 149.918 120.489 149.916 121.538C149.92 121.916 149.951 122.294 150.006 122.668ZM170.096 -164.442L86.6958 -154.732C86.1802 -156.661 84.9783 -158.336 83.3157 -159.442L108.846 -213.912L171.286 -167.912C170.633 -166.86 170.227 -165.674 170.096 -164.442ZM185.166 -348.702L112.166 -322.212L89.7858 -434.962C90.7256 -435.299 91.5964 -435.804 92.3558 -436.452L186.356 -354.772C185.507 -353.451 185.055 -351.913 185.056 -350.342C185.041 -349.793 185.078 -349.245 185.166 -348.702ZM-210.994 636.168L-149.624 822.088C-150.004 822.279 -150.369 822.499 -150.714 822.748L-260.614 709.148C-259.433 707.609 -258.834 705.701 -258.924 703.763C-259.014 701.825 -259.786 699.981 -261.104 698.558L-210.994 636.168ZM59.3958 774.618L-42.7443 890.018L-138.324 832.558C-137.905 831.557 -137.691 830.483 -137.694 829.398C-137.698 829.047 -137.721 828.696 -137.764 828.348L58.0057 772.988C58.3949 773.59 58.8623 774.138 59.3958 774.618ZM-145.924 837.618C-145.374 837.62 -144.824 837.567 -144.284 837.458L-104.484 947.298L-166.614 853.568L-150.554 836.188C-149.194 837.129 -147.578 837.631 -145.924 837.628L-145.924 837.618ZM-167.994 851.508L-258.864 714.428L-152.444 824.428C-153.571 825.887 -154.172 827.683 -154.153 829.527C-154.133 831.37 -153.492 833.153 -152.334 834.588L-167.994 851.508ZM-209.154 633.928L-192.674 613.418C-191.417 614.16 -189.984 614.55 -188.524 614.548C-188.404 614.548 -188.294 614.548 -188.184 614.548L-150.594 811.378L-209.154 633.928ZM-210.054 631.188L-221.434 596.708C-220.145 596.058 -219.049 595.082 -218.254 593.878L-196.414 603.998C-196.64 604.75 -196.754 605.532 -196.754 606.318C-196.754 608.389 -195.968 610.383 -194.554 611.898L-210.054 631.188ZM-218.504 584.498L-135.904 502.498L-135.804 502.568L-185.804 598.568C-187.532 597.963 -189.412 597.955 -191.145 598.544C-192.877 599.133 -194.363 600.286 -195.364 601.818L-217.214 591.708C-216.852 590.494 -216.778 589.212 -216.997 587.964C-217.215 586.716 -217.721 585.536 -218.474 584.518L-218.504 584.498ZM117.066 354.448L-14.2243 323.698C-14.2243 323.478 -14.2243 323.248 -14.2243 323.028C-14.2287 322.388 -14.3059 321.75 -14.4542 321.128L87.2457 280.558L120.126 350.628C118.743 351.563 117.676 352.894 117.066 354.448ZM82.4657 -435.832L16.3057 -293.202C14.9044 -293.619 13.4174 -293.653 11.9985 -293.301C10.5796 -292.949 9.28053 -292.225 8.23576 -291.202L-67.6943 -349.012L80.6257 -437.492C81.1528 -436.85 81.773 -436.291 82.4657 -435.832ZM-182.884 -433.662L-71.9942 -349.252L-106.444 -328.702C-107.596 -330.113 -109.183 -331.101 -110.956 -331.511C-112.73 -331.922 -114.59 -331.733 -116.244 -330.972L-183.124 -433.432L-182.884 -433.662ZM-105.944 -318.982C-105.737 -319.303 -105.549 -319.637 -105.384 -319.982L5.84575 -286.492C5.7856 -286.099 5.75551 -285.701 5.75575 -285.302C5.74312 -283.319 6.45421 -281.399 7.75575 -279.902L-24.5142 -246.302L-105.944 -318.982ZM-24.3542 -242.982L71.8858 -157.132C71.2273 -156.135 70.7971 -155.005 70.6257 -153.822L-104.694 -153.822C-104.896 -155.216 -105.458 -156.532 -106.324 -157.642L-24.3542 -242.982ZM-130.994 487.698C-131.144 487.698 -131.284 487.698 -131.434 487.698L-170.884 295.508C-169.755 295.088 -168.731 294.426 -167.884 293.568L-56.5543 375.088L-127.674 488.398C-128.719 487.933 -129.851 487.694 -130.994 487.698ZM30.6058 150.548C29.4883 150.665 28.4068 151.011 27.4281 151.563C26.4495 152.115 25.5944 152.862 24.9158 153.758L-24.3642 103.688L28.7658 55.2177C29.7641 56.1245 30.9691 56.7734 32.2757 57.1077L30.6058 150.548ZM-166.124 284.548L-57.9943 218.498L-26.0943 315.668C-27.9148 316.57 -29.3389 318.112 -30.0943 319.998L-32.6042 319.418L-165.524 288.418C-165.524 288.198 -165.524 287.978 -165.524 287.748C-165.51 286.666 -165.711 285.592 -166.114 284.588L-166.124 284.548ZM-55.8843 217.158L27.7557 166.088C28.1253 166.282 28.5099 166.445 28.9057 166.578L-20.9943 314.928C-21.4694 314.841 -21.9512 314.794 -22.4343 314.788C-22.9005 314.79 -23.3657 314.833 -23.8242 314.918L-55.8843 217.158ZM-56.6643 214.798L-74.9943 158.898C-73.9681 158.354 -73.0682 157.6 -72.3531 156.685C-71.638 155.77 -71.1239 154.715 -70.8443 153.588L-33.2543 157.228L24.3357 162.798C24.6938 163.433 25.1343 164.018 25.6458 164.538L-56.6643 214.798ZM-26.1543 105.288L23.7157 155.988C23.402 156.871 23.2397 157.801 23.2358 158.738C23.2397 159.255 23.2898 159.77 23.3858 160.278L-32.6142 154.858L-70.6142 151.178C-70.6983 149.715 -71.175 148.302 -71.9943 147.088L-26.1543 105.288ZM-27.7743 329.228L-55.2642 373.088L-166.414 291.668C-166.277 291.404 -166.153 291.134 -166.044 290.858L-30.6143 322.358C-30.6143 322.578 -30.6143 322.798 -30.6143 323.028C-30.6179 324.212 -30.3651 325.383 -29.8732 326.46C-29.3812 327.537 -28.6617 328.495 -27.7642 329.268L-27.7743 329.228ZM-167.994 281.828L-82.3343 159.038C-81.2327 159.567 -80.0266 159.844 -78.8043 159.848C-78.2809 159.843 -77.7589 159.793 -77.2443 159.698L-58.7743 216.088L-167.384 282.488C-167.574 282.255 -167.778 282.035 -167.994 281.828ZM-78.8543 143.388C-79.4291 143.386 -80.0024 143.446 -80.5643 143.568L-141.804 -10.9822C-141.555 -11.1237 -141.314 -11.2807 -141.084 -11.4523L-27.8443 103.548L-73.5643 145.258C-75.0524 144.031 -76.9258 143.369 -78.8543 143.388ZM-139.354 -13.1523C-139.12 -13.4695 -138.909 -13.8038 -138.724 -14.1523L26.2757 47.6277C26.1832 48.1156 26.1364 48.6111 26.1358 49.1077C26.1379 50.5834 26.5387 52.0311 27.2958 53.2977L-26.0142 101.928L-139.354 -13.1523ZM-105.214 -326.622L-69.9343 -347.622L6.77574 -289.232C6.69575 -289.092 6.63576 -288.952 6.56575 -288.812L-20.4343 -296.932L-104.704 -322.262C-104.641 -322.652 -104.607 -323.047 -104.604 -323.442C-104.592 -324.533 -104.8 -325.614 -105.214 -326.622ZM-22.6843 -244.702L9.62575 -278.342C10.9311 -277.52 12.4427 -277.083 13.9858 -277.082C14.8267 -277.085 15.6626 -277.213 16.4657 -277.462L74.1058 -159.372C73.8958 -159.222 73.6857 -159.072 73.4957 -158.912L-22.6843 -244.702ZM40.0057 55.0877L132.356 127.818L38.9357 155.288C38.3887 154.104 37.5687 153.067 36.543 152.263C35.5174 151.458 34.3153 150.908 33.0357 150.658L34.6958 57.3577C36.6829 57.2718 38.5706 56.4648 40.0057 55.0877ZM134.686 129.658L238.926 211.828C238.775 212.094 238.638 212.368 238.516 212.648L39.6458 159.648C39.6458 159.348 39.6957 159.038 39.6957 158.728C39.6947 158.35 39.6679 157.972 39.6157 157.598L134.686 129.658ZM31.4657 166.968C32.2651 166.965 33.06 166.847 33.8258 166.618L86.2658 278.368L-15.3143 318.888C-16.107 317.526 -17.2729 316.419 -18.6742 315.698L31.3258 166.958C31.3757 166.958 31.4158 166.968 31.4657 166.968ZM-22.4143 331.258C-21.487 331.253 -20.5672 331.091 -19.6943 330.778L37.5758 439.268C37.1881 439.57 36.8268 439.904 36.4957 440.268L-53.3043 374.478L-25.7243 330.538C-24.6835 331.007 -23.5558 331.252 -22.4143 331.258ZM34.5857 447.348L-123.494 492.528C-123.991 491.433 -124.722 490.46 -125.634 489.678L-54.6343 376.548L35.1357 442.318C34.6409 443.39 34.385 444.557 34.3857 445.738C34.4011 446.28 34.4681 446.819 34.5857 447.348ZM-135.524 489.088L-319.414 284.808C-318.558 283.769 -317.967 282.536 -317.694 281.218L-181.884 288.568C-181.693 290.607 -180.747 292.502 -179.232 293.882C-177.718 295.262 -175.743 296.027 -173.694 296.028C-173.544 296.028 -173.394 296.028 -173.244 296.028L-133.804 488.228C-134.41 488.445 -134.987 488.734 -135.524 489.088ZM-317.994 276.898L-166.584 198.438L-174.154 279.598C-175.969 279.692 -177.702 280.386 -179.079 281.572C-180.456 282.757 -181.401 284.367 -181.764 286.148L-317.584 278.798C-317.643 278.15 -317.781 277.512 -317.994 276.898ZM-163.994 197.088L-85.4943 156.408C-85.1641 156.864 -84.7889 157.286 -84.3743 157.668L-169.994 280.438C-170.534 280.163 -171.105 279.955 -171.694 279.818L-163.994 197.088ZM-163.734 194.228L-144.674 -9.99225C-144.454 -9.99225 -144.244 -10.0623 -144.034 -10.1122L-82.8343 144.418C-84.1213 145.129 -85.1942 146.172 -85.9417 147.438C-86.6891 148.704 -87.0836 150.147 -87.0843 151.618C-87.0788 152.526 -86.9268 153.428 -86.6343 154.288L-163.734 194.228ZM-138.294 -21.2623L-55.0943 -71.0624L28.1758 43.6877C27.7229 44.2026 27.3335 44.77 27.0158 45.3777L-137.874 -16.3723C-137.529 -18.003 -137.683 -19.6998 -138.314 -21.2422L-138.294 -21.2623ZM-52.9943 -72.2924L72.4357 -147.372C73.343 -146.274 74.5172 -145.427 75.8457 -144.912L74.8958 -140.672L34.2757 40.9177C32.7717 40.9063 31.2939 41.3112 30.0057 42.0877L-52.9943 -72.2924ZM-54.4242 -74.2924L-107.024 -146.752C-105.749 -148.007 -104.917 -149.643 -104.654 -151.412L70.6257 -151.412C70.7244 -150.75 70.9023 -150.102 71.1557 -149.482L-54.4242 -74.2924ZM-111.574 -160.762L-111.574 -315.402C-110.08 -315.621 -108.676 -316.248 -107.514 -317.212L-26.1243 -244.602L-108.024 -159.332C-109.095 -160.071 -110.325 -160.547 -111.614 -160.722L-111.574 -160.762ZM-180.364 -438.402L78.9158 -441.402C79.0125 -440.774 79.1837 -440.16 79.4258 -439.572L-69.7243 -350.572L-181.344 -435.572C-180.859 -436.435 -180.54 -437.382 -180.404 -438.362L-180.364 -438.402ZM109.876 -321.402L21.2658 -289.252C20.6231 -290.463 19.6881 -291.495 18.5458 -292.252L84.7058 -434.882C85.4619 -434.657 86.2467 -434.542 87.0358 -434.542C87.1658 -434.542 87.2958 -434.542 87.4258 -434.542L109.876 -321.402ZM110.356 -319.002L121.986 -260.412C120.902 -260.025 119.911 -259.414 119.077 -258.62C118.244 -257.826 117.586 -256.866 117.146 -255.802L22.2457 -285.162L22.2457 -285.342C22.2176 -285.872 22.1372 -286.398 22.0058 -286.912L110.356 -319.002ZM120.986 -245.362L107.986 -217.582L21.3258 -281.482C21.5438 -281.893 21.7277 -282.321 21.8757 -282.762L116.606 -253.442C116.606 -253.192 116.606 -252.932 116.606 -252.672C116.59 -251.169 116.986 -249.69 117.751 -248.396C118.516 -247.103 119.621 -246.043 120.946 -245.332L120.986 -245.362ZM106.906 -215.362L81.1658 -160.512C79.5925 -160.999 77.909 -160.999 76.3357 -160.512L19.0058 -278.792C19.2984 -279.013 19.5757 -279.254 19.8357 -279.512L106.906 -215.362ZM37.3958 41.4577C37.1658 41.3677 36.9258 41.2877 36.6758 41.2077L68.0057 -99.0524L78.1458 -144.382C78.3458 -144.382 78.5357 -144.382 78.7457 -144.382C80.8857 -144.387 82.9399 -145.224 84.4726 -146.718C86.0053 -148.211 86.8959 -150.243 86.9558 -152.382L170.156 -162.072C170.446 -160.438 171.227 -158.931 172.396 -157.752L37.3958 41.4577ZM158.146 129.768C159.81 129.769 161.436 129.263 162.806 128.318L234.476 205.238L137.476 128.858L150.666 124.988C151.323 126.418 152.378 127.628 153.704 128.476C155.03 129.323 156.572 129.772 158.146 129.768ZM238.066 217.768L88.5158 277.468L36.0057 165.588C37.3316 164.706 38.3736 163.459 39.0057 161.998L237.876 214.998C237.835 215.306 237.815 215.617 237.816 215.928C237.828 216.562 237.912 217.192 238.066 217.808L238.066 217.768ZM239.856 221.258L129.096 350.518C127.785 349.688 126.267 349.248 124.716 349.248C123.916 349.246 123.12 349.364 122.356 349.598L89.5458 279.658L239.006 220.088C239.251 220.516 239.536 220.921 239.856 221.298L239.856 221.258ZM118.286 362.608L47.2857 438.958C46.1836 438.197 44.9117 437.718 43.5815 437.563C42.2513 437.408 40.9034 437.581 39.6557 438.068L-17.5843 329.648C-16.3381 328.737 -15.3745 327.492 -14.8043 326.058L116.516 356.798C116.516 357.028 116.516 357.248 116.516 357.478C116.506 359.339 117.131 361.148 118.286 362.608ZM-94.9943 540.088L-124.994 501.558C-123.531 500.029 -122.714 497.994 -122.714 495.878C-122.721 495.52 -122.747 495.163 -122.794 494.808L35.4057 449.628L35.4957 449.788L-94.9943 540.088ZM-96.9943 541.468L-182.494 600.648C-182.846 600.276 -183.235 599.941 -183.654 599.648L-133.654 503.648C-132.794 503.954 -131.887 504.11 -130.974 504.108C-129.556 504.108 -128.161 503.743 -126.924 503.048L-96.9943 541.468ZM-95.5043 543.378L-21.1343 638.918C-21.9232 639.717 -22.5393 640.67 -22.9443 641.718L-31.8143 639.718L-180.284 606.818C-180.284 606.628 -180.284 606.438 -180.284 606.238C-180.288 604.978 -180.582 603.735 -181.144 602.608L-95.5043 543.378ZM-20.8943 650.778L-50.9943 693.308L-180.994 609.698C-180.924 609.555 -180.864 609.408 -180.814 609.258L-31.8143 642.258L-23.5043 644.088C-23.5043 644.288 -23.5043 644.498 -23.5043 644.708C-23.5146 645.845 -23.2879 646.973 -22.8386 648.018C-22.3892 649.063 -21.727 650.003 -20.8943 650.778ZM-52.4143 695.288L-142.204 822.088C-143.356 821.497 -144.631 821.189 -145.924 821.188C-146.034 821.188 -146.144 821.188 -146.254 821.188L-185.804 614.088C-184.465 613.621 -183.269 612.815 -182.334 611.748L-52.4143 695.288ZM-50.4143 696.598L57.1057 765.728C56.5302 767.337 56.4777 769.087 56.9558 770.728L-138.424 826.028C-138.853 825.063 -139.468 824.193 -140.234 823.468L-50.4143 696.598ZM24.4357 930.408L-40.6343 891.288L61.4357 775.948C61.8783 776.148 62.3365 776.312 62.8057 776.438L32.2057 927.168C31.808 927.114 31.4071 927.087 31.0057 927.088C29.7275 927.09 28.4676 927.391 27.3267 927.968C26.1859 928.544 25.1958 929.38 24.4357 930.408ZM-44.3743 891.868L-95.7843 949.948C-97.2313 948.806 -99.0211 948.186 -100.864 948.188C-101.104 948.188 -101.334 948.188 -101.574 948.188L-141.994 836.648C-141.06 836.14 -140.229 835.462 -139.544 834.648L-44.3743 891.868ZM-207.374 906.668C-207.017 905.405 -206.968 904.075 -207.23 902.789C-207.493 901.503 -208.06 900.299 -208.884 899.278L-168.344 855.408L-105.734 949.798C-106.433 950.313 -107.047 950.934 -107.554 951.638L-207.374 906.668ZM-263.964 711.668L-263.694 711.538L-169.694 853.288L-210.624 897.588C-211.989 896.647 -213.607 896.145 -215.264 896.148C-215.554 896.133 -215.844 896.133 -216.134 896.148L-263.964 711.668ZM-226.794 597.428C-226.248 597.54 -225.692 597.597 -225.134 597.598C-224.665 597.596 -224.196 597.552 -223.734 597.468L-211.864 633.468L-262.994 697.038C-263.074 697.038 -263.144 696.948 -263.214 696.908L-226.794 597.428ZM-147.604 -4.91229L-166.304 195.528L-319.104 274.758C-319.486 274.216 -319.937 273.725 -320.444 273.298L-147.604 -4.91229ZM-113.604 -144.432C-113.354 -144.432 -113.094 -144.432 -112.834 -144.432C-111.511 -144.436 -110.207 -144.759 -109.034 -145.372L-56.5542 -73.0824L-139.554 -23.3923C-140.416 -24.4514 -141.53 -25.2767 -142.794 -25.7923L-113.604 -144.432ZM128.396 -260.032C127.256 -260.611 125.995 -260.913 124.716 -260.912C124.586 -260.912 124.456 -260.912 124.326 -260.912L112.616 -319.912L186.006 -346.432C186.421 -345.685 186.954 -345.009 187.586 -344.432L128.396 -260.032ZM173.316 -170.082C173.156 -169.962 173.006 -169.832 172.856 -169.702L109.856 -216.132L123.206 -244.592C123.69 -244.5 124.183 -244.454 124.676 -244.452C125.834 -244.452 126.979 -244.698 128.036 -245.172L173.316 -170.082ZM157.526 113.338C156.406 113.412 155.314 113.717 154.318 114.233C153.321 114.75 152.442 115.466 151.736 116.338L42.0057 52.2077C42.6638 50.5663 42.7751 48.7565 42.3229 47.0469C41.8707 45.3373 40.8793 43.8191 39.4957 42.7177L174.386 -156.232C175.271 -155.755 176.238 -155.447 177.236 -155.322L177.096 -155.322L157.526 113.338ZM-13.9943 636.628C-14.4172 636.556 -14.8453 636.519 -15.2743 636.518C-16.6471 636.518 -17.998 636.862 -19.2043 637.518L-93.5443 542.088L37.0057 451.698C37.7027 452.357 38.5077 452.891 39.3857 453.278L-13.9943 636.628ZM59.3157 762.398C58.9232 762.757 58.565 763.152 58.2457 763.578L-48.9743 694.578L-18.8943 652.108C-17.7749 652.65 -16.548 652.934 -15.3043 652.938C-14.0819 652.934 -12.8759 652.657 -11.7743 652.128L59.3157 762.398ZM22.8657 936.268L-92.9943 954.088C-93.2418 953.226 -93.6304 952.412 -94.1443 951.678L-42.2643 893.088L23.2857 932.508C22.9673 933.393 22.8048 934.327 22.8057 935.268C22.8041 935.602 22.8241 935.936 22.8657 936.268Z" fill="#2534B6"/>
</g>
<path d="M-5.59429 10.8376C-6.5595 10.8275 -7.51291 11.0503 -8.37361 11.4873C-9.23432 11.9243 -9.97687 12.5624 -10.5383 13.3475C-11.0997 14.1327 -11.4634 15.0418 -11.5985 15.9976C-11.7336 16.9534 -11.6361 17.9276 -11.3143 18.8376L-84.3143 51.7477C-84.832 50.9756 -85.522 50.3344 -86.3299 49.8746C-87.1378 49.4148 -88.0415 49.149 -88.9697 49.0981C-89.8979 49.0473 -90.8252 49.2129 -91.6784 49.5817C-92.5317 49.9506 -93.2876 50.5126 -93.8865 51.2236C-94.4854 51.9345 -94.9109 52.7749 -95.1295 53.6784C-95.3481 54.5819 -95.3537 55.5239 -95.146 56.4299C-94.9383 57.336 -94.5228 58.1815 -93.9325 58.8995C-93.3422 59.6176 -92.5931 60.1887 -91.7443 60.5677L-126.744 195.778C-126.954 195.778 -127.174 195.778 -127.384 195.778C-128.984 195.778 -130.517 196.413 -131.648 197.544C-132.779 198.675 -133.414 200.208 -133.414 201.808C-133.414 203.407 -132.779 204.941 -131.648 206.072C-130.517 207.202 -128.984 207.838 -127.384 207.838C-126.975 207.838 -126.566 207.798 -126.164 207.718L-99.4843 280.618C-100.826 281.477 -101.772 282.834 -102.113 284.391C-102.455 285.947 -102.164 287.576 -101.304 288.918C-100.445 290.26 -99.0878 291.205 -97.5312 291.547C-95.9747 291.888 -94.3463 291.597 -93.0043 290.738L-32.4743 350.808C-33.2744 351.888 -33.6886 353.205 -33.6505 354.549C-33.6124 355.893 -33.1243 357.185 -32.2643 358.218L-167.054 507.798C-167.834 507.281 -168.723 506.953 -169.651 506.841C-170.579 506.729 -171.521 506.835 -172.401 507.152C-173.281 507.468 -174.075 507.986 -174.719 508.663C-175.363 509.341 -175.84 510.16 -176.112 511.055C-176.384 511.949 -176.442 512.895 -176.284 513.817C-176.125 514.738 -175.753 515.61 -175.198 516.362C-174.642 517.114 -173.919 517.726 -173.085 518.149C-172.251 518.572 -171.329 518.794 -170.394 518.798C-169.57 518.796 -168.754 518.629 -167.994 518.308L-39.6043 724.988C-40.3922 725.053 -41.1595 725.274 -41.8623 725.636C-42.5652 725.998 -43.1898 726.495 -43.7005 727.099C-44.2112 727.702 -44.598 728.4 -44.8389 729.154C-45.0798 729.907 -45.1699 730.7 -45.1043 731.488C-45.0386 732.276 -44.8184 733.043 -44.4562 733.746C-44.094 734.449 -43.597 735.073 -42.9934 735.584C-42.3898 736.095 -41.6915 736.481 -40.9384 736.722C-40.1854 736.963 -39.3922 737.053 -38.6043 736.988C-38.4143 736.988 -38.2243 736.988 -38.0443 736.988L-16.6443 823.988C-17.8855 824.471 -18.9306 825.354 -19.6146 826.497C-20.2987 827.64 -20.5829 828.979 -20.4225 830.301C-20.262 831.623 -19.6661 832.855 -18.7285 833.801C-17.791 834.747 -16.5652 835.355 -15.2443 835.528L-15.2443 948.748C-16.3849 948.906 -17.4556 949.39 -18.3288 950.141C-19.2019 950.892 -19.8406 951.878 -20.1685 952.982C-20.4964 954.086 -20.4997 955.261 -20.178 956.366C-19.8563 957.472 -19.2232 958.462 -18.3543 959.218L-67.3543 1034.31C-68.5035 1033.8 -69.7835 1033.66 -71.0135 1033.92C-72.2436 1034.18 -73.3617 1034.82 -74.2101 1035.74C-75.0584 1036.67 -75.5942 1037.84 -75.7418 1039.09C-75.8893 1040.34 -75.6412 1041.6 -75.0325 1042.7C-74.4238 1043.8 -73.4851 1044.68 -72.349 1045.22C-71.2129 1045.76 -69.9368 1045.92 -68.7006 1045.7C-67.4645 1045.47 -66.3307 1044.86 -65.4594 1043.95C-64.588 1043.05 -64.0231 1041.89 -63.8443 1040.65L126.076 1042.88C126.184 1044.47 126.921 1045.95 128.123 1047C129.325 1048.05 130.894 1048.58 132.486 1048.47C134.077 1048.36 135.56 1047.62 136.608 1046.42C137.657 1045.22 138.184 1043.65 138.076 1042.06C138.061 1040.9 137.714 1039.78 137.076 1038.82L206.006 978.958C207.094 979.893 208.481 980.407 209.916 980.408C211.515 980.408 213.049 979.772 214.18 978.642C215.31 977.511 215.946 975.977 215.946 974.378C215.946 972.778 215.31 971.245 214.18 970.114C213.049 968.983 211.515 968.348 209.916 968.348C208.98 968.349 208.059 968.572 207.226 968.998L163.856 907.158C164.468 906.582 164.952 905.884 165.277 905.109C165.602 904.335 165.76 903.5 165.742 902.66C165.724 901.821 165.53 900.994 165.173 900.234C164.815 899.473 164.301 898.797 163.666 898.248L196.866 843.088C197.529 843.329 198.23 843.455 198.936 843.458C200.535 843.458 202.069 842.822 203.2 841.692C204.33 840.561 204.966 839.027 204.966 837.428C204.966 835.828 204.33 834.295 203.2 833.164C202.069 832.033 200.535 831.398 198.936 831.398L199.816 831.328L185.506 634.498C186.507 634.28 187.436 633.81 188.204 633.132C188.972 632.454 189.554 631.591 189.893 630.625C190.233 629.658 190.32 628.621 190.145 627.611C189.971 626.602 189.541 625.654 188.896 624.858L245.196 564.428C246.089 565.033 247.129 565.386 248.207 565.45C249.284 565.514 250.359 565.286 251.317 564.79C252.276 564.295 253.083 563.55 253.654 562.634C254.225 561.718 254.538 560.665 254.56 559.586C254.583 558.507 254.314 557.442 253.782 556.503C253.25 555.564 252.474 554.786 251.537 554.25C250.6 553.715 249.536 553.443 248.457 553.462C247.378 553.48 246.324 553.79 245.406 554.358L164.246 459.678C165.199 458.586 165.724 457.187 165.726 455.738C165.741 454.633 165.452 453.546 164.888 452.595C164.325 451.645 163.511 450.868 162.535 450.351C161.558 449.834 160.458 449.596 159.356 449.665C158.253 449.733 157.191 450.104 156.286 450.738L104.286 394.808C105.009 393.924 105.465 392.853 105.6 391.719C105.736 390.586 105.545 389.437 105.051 388.408C104.556 387.379 103.778 386.513 102.809 385.91C101.839 385.308 100.717 384.995 99.5757 385.008C99.3426 384.992 99.1088 384.992 98.8757 385.008L59.7357 250.598C60.6266 250.172 61.3986 249.533 61.9834 248.738C62.5682 247.942 62.9476 247.015 63.0881 246.037C63.2285 245.06 63.1256 244.063 62.7886 243.135C62.4515 242.207 61.8906 241.377 61.1557 240.718L113.256 159.958C114.057 160.318 114.927 160.498 115.805 160.484C116.683 160.471 117.548 160.265 118.338 159.882C119.128 159.498 119.824 158.945 120.377 158.263C120.93 157.581 121.326 156.785 121.538 155.933C121.75 155.081 121.772 154.192 121.603 153.331C121.434 152.469 121.078 151.655 120.56 150.945C120.042 150.236 119.374 149.65 118.605 149.227C117.835 148.804 116.982 148.555 116.106 148.498L93.6257 37.7177C94.492 37.2965 95.2442 36.6728 95.8186 35.8995C96.393 35.1262 96.7727 34.2259 96.9257 33.2748C97.0787 32.3238 97.0005 31.3498 96.6976 30.4354C96.3947 29.5209 95.8761 28.6928 95.1856 28.0211C94.4951 27.3494 93.6531 26.8538 92.7306 26.5763C91.8082 26.2988 90.8325 26.2474 89.886 26.4265C88.9395 26.6057 88.05 27.0101 87.2928 27.6056C86.5356 28.2011 85.9329 28.9702 85.5357 29.8477L0.435712 16.7177C0.404218 15.1421 -0.245898 13.6421 -1.37419 12.5419C-2.50249 11.4417 -4.01837 10.8295 -5.59429 10.8376ZM178.156 628.618C178.158 629.386 178.307 630.146 178.596 630.858L104.086 674.428L167.346 624.598L178.216 627.788C178.18 628.063 178.16 628.34 178.156 628.618ZM193.816 840.618L148.066 874.348L129.356 834.478C130.576 833.669 131.458 832.442 131.836 831.028L192.946 838.138C193.042 839.026 193.34 839.881 193.816 840.638L193.816 840.618ZM203.866 974.378C203.864 975.53 204.194 976.658 204.816 977.628L136.006 1037.48C135.448 1037 134.807 1036.63 134.116 1036.39L150.516 953.768L204.006 973.178C203.919 973.572 203.872 973.974 203.866 974.378ZM-122.994 205.808C-122.026 204.768 -121.459 203.418 -121.393 201.999C-121.327 200.58 -121.767 199.183 -122.634 198.058L-42.1043 114.838C-41.8508 115.019 -41.5833 115.179 -41.3043 115.318L-86.3043 251.528L-122.994 205.808ZM110.816 151.268L-32.6143 110.708C-32.5824 110.452 -32.5657 110.195 -32.5643 109.938C-32.5613 109.145 -32.7178 108.359 -33.0243 107.628L36.9757 65.5177L111.826 150.088C111.436 150.438 111.09 150.834 110.796 151.268L110.816 151.268ZM-41.9943 104.958L-53.7543 92.2177L-8.22429 23.5476L-37.3943 104.028C-37.7892 103.948 -38.1913 103.907 -38.5943 103.908C-39.8077 103.906 -40.9932 104.272 -41.9943 104.958ZM-43.2943 106.158C-44.1453 107.209 -44.6162 108.516 -44.6307 109.869C-44.6453 111.221 -44.2025 112.539 -43.3743 113.608L-121.374 194.178L-54.7843 93.7377L-43.2943 106.158ZM-42.0243 123.158L-69.5843 267.378C-69.6643 267.378 -69.7443 267.378 -69.8243 267.378C-70.8963 267.381 -71.9486 267.667 -72.8743 268.208L-84.9443 253.208L-42.0243 123.158ZM-74.2543 269.308C-74.9596 270.074 -75.4552 271.01 -75.6934 272.024C-75.9317 273.039 -75.9044 274.097 -75.6143 275.098L-91.6143 282.508C-92.1951 281.625 -92.9988 280.91 -93.9443 280.438L-85.6043 255.178L-74.2543 269.308ZM-90.6243 285.818C-90.6256 285.242 -90.7098 284.669 -90.8743 284.118L-74.8743 276.708C-74.3312 277.54 -73.5901 278.224 -72.7174 278.698C-71.8447 279.173 -70.8677 279.424 -69.8743 279.428C-69.1939 279.43 -68.518 279.318 -67.8743 279.098L-31.2243 349.408L-31.2943 349.408L-91.8243 289.338C-91.0616 288.321 -90.6414 287.089 -90.6243 285.818ZM156.376 460.758L132.266 512.088L57.7457 482.358C57.8582 481.903 57.9153 481.436 57.9157 480.968C57.9257 480.805 57.9257 480.641 57.9157 480.478L154.116 457.948C154.564 459.087 155.345 460.066 156.356 460.758L156.376 460.758ZM127.376 1038.24L18.7057 973.408L74.3457 931.088C75.1134 931.832 76.0646 932.361 77.1026 932.619C78.1407 932.877 79.2285 932.856 80.2557 932.558L128.736 1037.02C128.226 1037.35 127.771 1037.76 127.386 1038.24L127.376 1038.24ZM-65.8943 1035.24L-16.8943 960.158C-15.6822 960.722 -14.3165 960.864 -13.0139 960.564C-11.7114 960.263 -10.5465 959.536 -9.70428 958.498L15.5457 973.588L-65.6943 1035.44C-65.7528 1035.38 -65.8164 1035.32 -65.8843 1035.27L-65.8943 1035.24ZM50.3657 898.158L74.0057 922.778C73.0391 923.885 72.5125 925.308 72.5257 926.778C72.5233 927.069 72.5468 927.36 72.5957 927.648L-8.91431 952.088C-9.03728 951.834 -9.17412 951.587 -9.32428 951.348L50.3657 898.158ZM-9.63431 833.158C-9.0083 832.343 -8.59889 831.383 -8.4443 830.368L120.056 830.368C120.188 831.23 120.502 832.055 120.976 832.788L50.4557 895.698L-9.63431 833.158ZM-25.2843 359.808L26.8257 442.808L-54.7143 502.548C-55.3279 501.91 -56.0713 501.412 -56.8943 501.088L-27.9943 360.298C-27.8843 360.298 -27.7743 360.298 -27.6643 360.298C-26.8327 360.301 -26.0091 360.134 -25.2443 359.808L-25.2843 359.808ZM92.0057 675.828C91.0476 676.072 90.1647 676.55 89.4357 677.218L50.5057 641.688L86.6057 605.008C87.1034 605.666 87.7315 606.214 88.4507 606.618C89.17 607.023 89.9648 607.274 90.7857 607.358L92.0057 675.828ZM-52.8943 506.828L-52.8943 506.338L44.4957 483.668L46.3357 483.238C46.8844 484.615 47.92 485.743 49.2457 486.408L25.8057 557.578L-53.4143 509.148C-53.0964 508.402 -52.9331 507.599 -52.9343 506.788L-52.8943 506.828ZM50.9057 486.958C51.2357 487.017 51.5704 487.047 51.9057 487.048C52.2615 487.05 52.6166 487.016 52.9657 486.948L89.4857 595.628C89.1973 595.727 88.9165 595.847 88.6457 595.988L27.3657 558.518L50.9057 486.958ZM87.0857 597.088C86.6987 597.466 86.3626 597.893 86.0857 598.358L43.8857 602.448L16.3757 605.088C16.1771 604.266 15.8073 603.496 15.2903 602.827C14.7733 602.159 14.1208 601.607 13.3757 601.208L26.8257 560.208L87.0857 597.088ZM15.5757 609.848C16.1713 608.955 16.5167 607.919 16.5757 606.848L44.4457 604.148L85.4457 600.148C85.2429 601.2 85.3257 602.288 85.6857 603.298L49.1457 640.418L15.5757 609.848ZM45.8557 480.958L45.8557 481.448L-53.3743 504.558C-53.4521 504.352 -53.5423 504.152 -53.6443 503.958L27.7957 444.298L48.0057 476.408C47.3367 476.967 46.7978 477.666 46.4265 478.455C46.0551 479.245 45.8604 480.105 45.8557 480.978L45.8557 480.958ZM-54.3343 510.658L25.2457 559.308L11.6657 600.658C11.2933 600.586 10.915 600.549 10.5357 600.548C9.63875 600.545 8.75298 600.747 7.94571 601.138L-54.8243 511.138C-54.6518 510.987 -54.4882 510.827 -54.3343 510.658ZM14.4057 611.198L47.9057 641.758L-35.0943 726.068C-35.2647 725.942 -35.4416 725.825 -35.6243 725.718L9.2457 612.478C9.66038 612.563 10.0824 612.606 10.5057 612.608C11.932 612.616 13.3146 612.116 14.4057 611.198ZM49.2157 642.958L88.2757 678.588C87.7209 679.516 87.4273 680.576 87.4257 681.658C87.4266 682.02 87.4634 682.382 87.5357 682.738L-33.3443 728.008C-33.4788 727.763 -33.6326 727.528 -33.8043 727.308L49.2157 642.958ZM-8.33429 954.708C-8.33732 954.416 -8.36072 954.126 -8.4043 953.838L53.3457 935.278L73.1157 929.338L73.2657 929.638L17.0657 972.428L-8.7843 956.998C-8.48585 956.271 -8.33296 955.493 -8.33429 954.708ZM122.156 834.088L122.606 834.428L80.3757 920.958C79.7866 920.773 79.173 920.679 78.5557 920.678C77.4236 920.676 76.3142 920.995 75.3557 921.598L51.6857 896.958L122.156 834.088ZM93.7357 675.618L92.5157 607.258C93.4536 607.077 94.3349 606.676 95.0863 606.086C95.8377 605.496 96.4374 604.736 96.8357 603.868L165.256 623.968L97.5957 677.258C96.5453 676.272 95.1751 675.697 93.7357 675.638L93.7357 675.618ZM97.3357 602.168C97.3759 601.893 97.396 601.615 97.3957 601.338C97.4106 601.111 97.4106 600.884 97.3957 600.658L243.116 561.838C243.205 562.045 243.309 562.245 243.426 562.438L167.006 622.638L97.3357 602.168ZM91.2657 595.318L54.6257 486.318C55.6539 485.791 56.5081 484.978 57.0857 483.978L131.516 513.678L93.0957 595.588C92.5354 595.415 91.9522 595.327 91.3657 595.328C91.3657 595.328 91.2957 595.338 91.2657 595.338L91.2657 595.318ZM49.4657 475.438L29.2457 443.248L95.0557 395.088C95.2967 395.36 95.561 395.611 95.8457 395.838L53.8457 475.328C53.2038 475.098 52.5274 474.98 51.8457 474.978C51.0282 474.977 50.2189 475.14 49.4657 475.458L49.4657 475.438ZM93.5357 391.088C93.5371 391.951 93.7247 392.804 94.0857 393.588L28.3057 441.758L-23.7443 358.868C-23.0768 358.292 -22.5413 357.579 -22.1743 356.778L93.6557 389.888C93.5733 390.282 93.5331 390.685 93.5357 391.088ZM-29.7343 359.968L-58.6343 500.798C-58.7443 500.798 -58.8543 500.798 -58.9643 500.798C-60.4679 500.792 -61.9189 501.351 -63.03 502.364C-64.1412 503.377 -64.8315 504.77 -64.9643 506.268L-164.484 511.648C-164.682 510.681 -165.114 509.777 -165.744 509.018L-30.9943 359.308C-30.6 359.568 -30.1772 359.783 -29.7343 359.948L-29.7343 359.968ZM-164.384 513.388L-64.8743 507.998C-64.6114 509.306 -63.92 510.489 -62.9094 511.36C-61.8989 512.231 -60.6268 512.74 -59.2943 512.808L-53.7443 572.268L-164.694 514.778C-164.536 514.328 -164.432 513.862 -164.384 513.388ZM-57.5243 512.638C-57.0955 512.534 -56.6796 512.383 -56.2843 512.188L6.47571 602.088C6.16804 602.365 5.8899 602.673 5.64573 603.008L-51.8743 573.198L-57.5243 512.638ZM4.82572 604.638C4.35822 605.979 4.38204 607.444 4.89295 608.769C5.40386 610.095 6.3687 611.197 7.6157 611.878L-37.2443 725.088C-37.3988 725.047 -37.5558 725.017 -37.7143 724.998L-51.7143 575.358L4.82572 604.638ZM-32.5843 730.928C-32.5869 730.504 -32.6305 730.082 -32.7143 729.668L88.1057 684.418C88.3352 684.865 88.6209 685.282 88.9557 685.658L27.9557 769.728L-33.0443 733.238C-32.7378 732.506 -32.5813 731.721 -32.5843 730.928ZM90.3157 686.798C91.2426 687.368 92.3073 687.676 93.3957 687.688L123.156 820.748L123.856 823.858C122.882 824.234 122.021 824.853 121.356 825.658L29.4457 770.658L90.3157 686.798ZM120.446 827.178C120.263 827.632 120.132 828.105 120.056 828.588L-8.40429 828.588C-8.59639 827.292 -9.20749 826.094 -10.1443 825.178L28.4057 772.088L120.446 827.178ZM-10.8743 834.388L49.1257 896.878L-10.5043 950.088C-11.3613 949.374 -12.4001 948.914 -13.5043 948.758L-13.5043 835.438C-12.5564 835.303 -11.6546 834.943 -10.8743 834.388ZM-64.5943 1036.83L17.1857 974.568L126.476 1039.76C126.299 1040.18 126.174 1040.63 126.106 1041.09L-63.8943 1038.87C-64.0062 1038.15 -64.2432 1037.46 -64.5943 1036.83ZM132.336 1036.04C132.246 1036.04 132.146 1036.04 132.046 1036.04C131.47 1036.04 130.897 1036.12 130.346 1036.29L81.8657 931.778C82.7026 931.232 83.3901 930.486 83.8657 929.608L148.796 953.158L132.336 1036.04ZM84.4657 927.928C84.5467 927.533 84.5869 927.131 84.5857 926.728L84.5857 926.598L154.116 905.088C154.438 905.869 154.92 906.575 155.531 907.159C156.143 907.743 156.87 908.192 157.666 908.478L149.146 951.408L84.4657 927.928ZM153.666 902.788L153.666 903.358L84.2557 924.838C84.1492 924.517 84.0154 924.206 83.8557 923.908L147.376 877.088L156.926 897.448C155.944 897.952 155.12 898.717 154.545 899.659C153.969 900.601 153.665 901.684 153.666 902.788ZM82.8257 922.478C82.6352 922.291 82.4349 922.114 82.2257 921.948L124.226 835.238C124.81 835.414 125.416 835.505 126.026 835.508C126.611 835.508 127.194 835.424 127.756 835.258L146.606 875.448L82.8257 922.478ZM194.646 833.218C193.79 834.084 193.218 835.189 193.006 836.388L132.006 829.288C131.964 827.724 131.314 826.239 130.193 825.148C129.072 824.057 127.57 823.447 126.006 823.448C125.866 823.448 125.716 823.448 125.576 823.448L118.146 790.228L95.1457 687.428L95.6757 687.248L194.646 833.218ZM178.716 626.088L169.056 623.248L240.116 567.248L187.606 623.648C186.884 623.145 186.06 622.807 185.193 622.658C184.327 622.509 183.438 622.553 182.589 622.786C181.741 623.019 180.954 623.435 180.285 624.006C179.616 624.576 179.08 625.287 178.716 626.088ZM242.586 559.468C242.571 559.691 242.571 559.915 242.586 560.138L96.9057 598.968C96.4399 597.898 95.6762 596.985 94.7057 596.338L133.166 514.338L242.746 558.088C242.642 558.54 242.589 559.003 242.586 559.468ZM243.406 556.468L133.916 512.798L157.916 461.548C158.476 461.722 159.059 461.809 159.646 461.808C160.779 461.806 161.888 461.484 162.846 460.878L244.006 555.558C243.783 555.831 243.582 556.122 243.406 556.428L243.406 556.468ZM153.666 455.778L153.666 456.268L57.4657 478.798C57.0583 477.751 56.3654 476.84 55.4657 476.168L97.4057 396.718C98.099 396.995 98.8389 397.138 99.5857 397.138C100.804 397.139 101.993 396.769 102.996 396.078L154.996 452.008C154.143 453.065 153.674 454.38 153.666 455.738L153.666 455.778ZM94.3157 388.088L94.2557 388.198L-21.6943 355.088C-21.6544 354.83 -21.6344 354.569 -21.6343 354.308C-21.6326 352.757 -22.2311 351.267 -23.3043 350.148L-1.30428 321.908L94.3157 388.088ZM-24.6843 349.028C-25.5971 348.505 -26.6327 348.236 -27.6843 348.248C-28.3647 348.246 -29.0406 348.357 -29.6843 348.578L-66.3343 278.268C-66.028 278.041 -65.7435 277.787 -65.4843 277.508L-2.83428 320.868L-24.6843 349.028ZM-64.4043 276.028C-63.9896 275.202 -63.7739 274.291 -63.7743 273.368L-63.7743 272.948L45.0057 248.868L51.5057 247.428C51.8085 248.175 52.2572 248.855 52.8257 249.428L-1.6643 319.428L-64.4043 276.028ZM51.0757 245.208C51.0757 245.368 51.0757 245.518 51.0757 245.668L45.0057 247.088L-64.2043 271.238L-64.3343 270.918L30.9257 209.658L53.0057 240.818C52.3921 241.379 51.9019 242.062 51.5662 242.823C51.2305 243.584 51.0567 244.406 51.0557 245.238L51.0757 245.208ZM-65.2943 269.428C-65.9809 268.648 -66.8551 268.056 -67.8343 267.708L-38.8343 115.958C-38.7443 115.958 -38.6643 115.958 -38.5843 115.958C-37.6393 115.956 -36.7079 115.733 -35.8643 115.308L29.9357 208.198L-65.2943 269.428ZM-34.4443 114.288C-33.889 113.75 -33.441 113.112 -33.1243 112.408L110.006 152.908C109.84 153.452 109.756 154.018 109.756 154.588C109.759 155.27 109.88 155.947 110.116 156.588L31.3557 207.238L-34.4443 114.288ZM91.0057 38.3677C91.2937 38.3647 91.581 38.3413 91.8657 38.2977L114.326 148.748C113.984 148.837 113.649 148.954 113.326 149.098L38.5357 64.5877L86.2157 35.9277C86.7694 36.679 87.4906 37.2906 88.3222 37.7142C89.1537 38.1378 90.0726 38.3615 91.0057 38.3677ZM-33.9943 106.088C-34.4894 105.487 -35.0933 104.985 -35.7743 104.608L-6.14427 22.8477C-5.97109 22.8579 -5.79747 22.8579 -5.62429 22.8477C-4.27513 22.8445 -2.96576 22.3904 -1.90428 21.5576L35.7657 64.1177L-33.9943 106.088ZM-10.5343 20.3477C-10.1606 20.8646 -9.70848 21.3201 -9.19429 21.6976L-54.9943 90.8777L-84.6943 58.7377C-83.8309 57.6674 -83.3613 56.3329 -83.3643 54.9577C-83.3636 54.403 -83.441 53.8508 -83.5943 53.3177L-10.5343 20.3477ZM-90.0843 60.9377C-89.8743 60.9377 -89.6643 60.9377 -89.4443 60.9377C-88.2361 60.9543 -87.0511 60.6058 -86.0443 59.9377L-56.0443 92.3977L-124.884 196.268L-125.084 196.168L-90.0843 60.9377ZM-124.584 206.998C-124.527 206.97 -124.474 206.937 -124.424 206.898L-86.9643 253.508L-95.6543 279.868C-95.9842 279.806 -96.3187 279.772 -96.6543 279.768C-97.0646 279.765 -97.4738 279.808 -97.8743 279.898L-124.584 206.998ZM-166.494 517.418C-166.123 517.099 -165.787 516.74 -165.494 516.348L-53.4943 574.348L-39.7943 721.218L-166.494 517.418ZM-36.3243 736.508C-35.4011 736.13 -34.5866 735.529 -33.9543 734.758L26.8757 771.168L-11.5743 824.168C-12.4368 823.722 -13.3934 823.489 -14.3643 823.488C-14.5508 823.477 -14.7378 823.477 -14.9243 823.488L-36.3243 736.508ZM205.756 970.008C205.29 970.445 204.898 970.955 204.596 971.518L150.826 952.008L159.406 908.808C159.496 908.808 159.596 908.808 159.696 908.808C160.63 908.809 161.552 908.59 162.386 908.168L205.756 970.008ZM162.146 897.288C161.376 896.938 160.541 896.757 159.696 896.758C159.334 896.76 158.972 896.794 158.616 896.858L148.836 876.008L194.966 842.008C195.076 842.108 195.186 842.198 195.306 842.288L162.146 897.288ZM198.006 831.488L198.106 831.488C197.375 831.584 196.667 831.811 196.016 832.158L97.1757 686.378C98.1919 685.573 98.9203 684.462 99.2519 683.209C99.5836 681.956 99.5007 680.629 99.0157 679.428L179.446 632.428C179.962 633.074 180.605 633.606 181.337 633.992C182.068 634.377 182.871 634.607 183.696 634.668L198.006 831.488ZM97.1557 385.538C96.5111 385.818 95.9219 386.21 95.4157 386.698L-0.234275 320.488L54.2157 250.548C55.0993 251.029 56.0897 251.28 57.0957 251.278C57.4071 251.272 57.7178 251.245 58.0257 251.198L97.1557 385.538ZM59.6757 239.798C58.8632 239.406 57.9727 239.203 57.0707 239.203C56.1687 239.203 55.2783 239.406 54.4657 239.798L32.4657 208.678L111.006 158.168C111.245 158.479 111.509 158.77 111.796 159.038L59.6757 239.798ZM85.0057 32.3377C85.0087 33.0202 85.1305 33.697 85.3657 34.3377L37.3657 63.2177L-0.634296 20.2876C-0.258212 19.7505 0.0288209 19.1561 0.215711 18.5276L85.0757 31.6177C85.0057 31.8677 85.0057 32.0877 85.0057 32.3377Z" fill="#2534B6"/>
</g>
</g>
</svg>
