<svg width="150" height="70" viewBox="0 0 180 80" fill="none" xmlns="http://www.w3.org/2000/svg">
<path style="transform: scale(0.62) translate(20px, 24px )" d="M44.8468 13.3833H33.319C33.2288 13.3805 33.1389 13.396 33.0548 13.4287C32.9706 13.4615 32.8938 13.5109 32.829 13.5741C32.7642 13.6372 32.7127 13.7128 32.6776 13.7963C32.6424 13.8798 32.6243 13.9696 32.6244 14.0603V23.8302L17.6234 0.180003C17.5933 0.125465 17.5493 0.0800059 17.4959 0.0483507C17.4424 0.0166954 17.3815 0 17.3195 0C17.2574 0 17.1965 0.0166954 17.1431 0.0483507C17.0896 0.0800059 17.0456 0.125465 17.0155 0.180003L1.05592 25.3166C1.01746 25.3694 0.994554 25.432 0.989813 25.4973C0.985072 25.5625 0.998691 25.6278 1.02911 25.6856C1.05954 25.7435 1.10554 25.7916 1.16187 25.8244C1.2182 25.8573 1.28258 25.8735 1.34768 25.8714H10.5518V41.5102C10.5527 49.0659 13.5409 56.3118 18.859 61.6545C24.1772 66.9972 31.3899 69.9991 38.911 70V70C42.6351 70 46.3229 69.2631 49.7635 67.8313C53.2042 66.3996 56.3305 64.3011 58.9639 61.6555C61.5973 59.01 63.6862 55.8693 65.1114 52.4128C66.5366 48.9563 67.2701 45.2516 67.2701 41.5102V14.0603C67.2701 13.8807 67.1991 13.7086 67.0728 13.5816C66.9464 13.4547 66.775 13.3833 66.5963 13.3833H44.8468ZM54.7594 41.5905C54.7594 45.8131 53.0897 49.8628 50.1175 52.8487C47.1454 55.8345 43.1142 57.512 38.911 57.512V57.512C34.7077 57.512 30.6766 55.8345 27.7044 52.8487C24.7322 49.8628 23.0625 45.8131 23.0625 41.5905V25.8888H32.6417V39.2911C32.6417 40.917 33.2847 42.4764 34.4291 43.6261C35.5736 44.7758 37.1258 45.4217 38.7443 45.4217C40.3627 45.4217 41.9149 44.7758 43.0594 43.6261C44.2038 42.4764 44.8468 40.917 44.8468 39.2911V25.8714H54.7594V41.5905Z" fill="#FE334A"/>
<path d="M85.6301 40.8886H75.2791V25.323H79.2215V37.6959H85.6301V40.8886Z" fill="#FE334A"/>
<path d="M98.0575 40.8886H87.4355V25.323H98.0575V28.5157H91.3779V31.6141H97.658V34.5242H91.3779V37.6959H98.0575V40.8886Z" fill="#FE334A"/>
<path d="M104.361 40.8886L99.4218 25.323H103.899L106.883 37.019H106.97L109.943 25.323H114.26L109.321 40.8886H104.361Z" fill="#FE334A"/>
<path d="M126.365 40.8886H115.743V25.323H126.365V28.5157H119.685V31.6141H125.965V34.5242H119.685V37.6959H126.365V40.8886Z" fill="#FE334A"/>
<path d="M138.938 40.8886H128.587V25.323H132.529V37.6959H138.938V40.8886Z" fill="#FE334A"/>
<path d="M148.961 34.9464C148.961 36.7573 149.937 37.8355 151.698 37.8355C153.459 37.8355 154.428 36.7573 154.428 34.9464V25.323H158.34V35.3686C158.34 38.8578 155.7 41.1607 151.67 41.1607C147.641 41.1607 144.994 38.8613 144.994 35.3686V25.323H148.961V34.9464Z" fill="#FE334A"/>
<path d="M167.408 25.323C170.735 25.323 172.99 27.4933 172.99 30.836C172.99 34.1787 170.617 36.3281 167.172 36.3281H164.636V40.8886H160.697V25.323H167.408ZM164.629 33.3483H166.338C168.012 33.3483 168.999 32.476 168.999 30.8465C168.999 29.217 168.012 28.3552 166.359 28.3552H164.622L164.629 33.3483Z" fill="#FE334A"/>
<path d="M94.431 48.7324C96.5151 48.7324 97.8593 49.8909 97.9045 51.5448H96.1677C96.067 50.6759 95.4313 50.1281 94.4032 50.1281C93.375 50.1281 92.7498 50.6131 92.7498 51.3284C92.7498 51.8937 93.1562 52.2775 94.1392 52.4973L95.5876 52.8463C97.4112 53.2719 98.1059 53.9872 98.1059 55.2887C98.1059 56.9252 96.588 58.0522 94.4865 58.0522C92.2566 58.0522 90.9158 56.9531 90.7456 55.2608H92.5588C92.729 56.1994 93.3646 56.6565 94.4865 56.6565C95.6085 56.6565 96.265 56.1959 96.265 55.4632C96.265 54.884 95.935 54.542 94.9589 54.3222L93.5105 53.9733C91.8154 53.5825 90.9748 52.7625 90.9748 51.461C90.9922 49.8315 92.3816 48.7324 94.431 48.7324Z" fill="#FE334A"/>
<path d="M99.1404 53.3731C99.1404 50.4945 100.829 48.7324 103.375 48.7324C105.921 48.7324 107.605 50.4945 107.605 53.3731C107.605 56.2518 105.928 58.0278 103.375 58.0278C100.822 58.0278 99.1404 56.2622 99.1404 53.3731ZM105.74 53.3731C105.74 51.3912 104.806 50.2328 103.375 50.2328C101.944 50.2328 101.009 51.3773 101.009 53.3731C101.009 55.369 101.94 56.5135 103.375 56.5135C104.809 56.5135 105.74 55.369 105.74 53.3731Z" fill="#FE334A"/>
<path d="M109.091 45.5645H110.922V57.8571H109.091V45.5645Z" fill="#FE334A"/>
<path d="M120.453 57.857H118.699V56.3392H118.657C118.164 57.4139 117.268 58.0175 115.878 58.0175C113.937 58.0175 112.752 56.7474 112.752 54.6957V48.8931H114.583V54.3363C114.583 55.7006 115.229 56.4299 116.493 56.4299C117.816 56.4299 118.612 55.5087 118.612 54.113V48.8792H120.442L120.453 57.857Z" fill="#FE334A"/>
<path d="M124.648 46.7681V48.8895H126.347V50.348H124.648V55.2888C124.648 56.0634 124.996 56.4124 125.735 56.4124C125.937 56.4131 126.137 56.3991 126.336 56.3705V57.8255C126.001 57.8902 125.66 57.9194 125.319 57.9128C123.512 57.9128 122.811 57.2149 122.811 55.4912V50.3515H121.512V48.893H122.811V46.7681H124.648Z" fill="#FE334A"/>
<path d="M127.75 46.3877C127.75 46.1814 127.81 45.9797 127.924 45.808C128.038 45.6362 128.2 45.5021 128.389 45.4224C128.578 45.3427 128.787 45.3209 128.989 45.3599C129.19 45.3989 129.376 45.4969 129.522 45.6416C129.669 45.7862 129.769 45.9711 129.812 46.173C129.854 46.3749 129.836 46.5848 129.759 46.7763C129.683 46.9679 129.552 47.1325 129.383 47.2496C129.214 47.3667 129.014 47.431 128.809 47.4345C128.671 47.4368 128.533 47.4114 128.405 47.3599C128.277 47.3083 128.16 47.2315 128.061 47.1341C127.962 47.0367 127.884 46.9205 127.831 46.7924C127.777 46.6642 127.75 46.5266 127.75 46.3877ZM127.892 48.893H129.726V57.8569H127.892V48.893Z" fill="#FE334A"/>
<path d="M131.199 53.3731C131.199 50.4945 132.887 48.7324 135.433 48.7324C137.979 48.7324 139.663 50.4945 139.663 53.3731C139.663 56.2518 137.986 58.0278 135.433 58.0278C132.88 58.0278 131.199 56.2622 131.199 53.3731ZM137.798 53.3731C137.798 51.3912 136.864 50.2328 135.433 50.2328C134.002 50.2328 133.067 51.3773 133.067 53.3731C133.067 55.369 133.998 56.5135 135.433 56.5135C136.867 56.5135 137.798 55.369 137.798 53.3731Z" fill="#FE334A"/>
<path d="M141.08 48.8928H142.817V50.3932H142.858C143.341 49.3708 144.293 48.7393 145.665 48.7393C147.634 48.7393 148.763 50.0024 148.763 52.054V57.8567H146.922V52.4134C146.922 51.0666 146.294 50.3199 145.022 50.3199C143.751 50.3199 142.904 51.2411 142.904 52.6298V57.8637H141.07L141.08 48.8928Z" fill="#FE334A"/>
<path d="M153.824 48.7324C155.908 48.7324 157.249 49.8909 157.297 51.5448H155.56C155.46 50.6759 154.824 50.1281 153.799 50.1281C152.775 50.1281 152.146 50.6131 152.146 51.3284C152.146 51.8937 152.552 52.2775 153.518 52.4973L154.97 52.8463C156.79 53.2719 157.488 53.9872 157.488 55.2887C157.488 56.9252 155.97 58.0522 153.865 58.0522C151.635 58.0522 150.295 56.9531 150.124 55.2608H151.941C152.111 56.1994 152.747 56.6565 153.865 56.6565C154.984 56.6565 155.647 56.1959 155.647 55.4632C155.647 54.884 155.317 54.542 154.341 54.3222L152.889 53.9733C151.194 53.5825 150.354 52.7625 150.354 51.461C150.374 49.8315 151.767 48.7324 153.824 48.7324Z" fill="#FE334A"/>
<path d="M87.5162 52.459V54.2982H75.2791V52.459H87.5162Z" fill="#FE334A"/>
<path d="M172.99 52.459V54.2982H160.77V52.459H172.99Z" fill="#FE334A"/>
</svg>
