<svg width="108" height="204" viewBox="0 0 108 204" fill="none" xmlns="http://www.w3.org/2000/svg">
<rect x="0.568176" y="0.5" width="106.42" height="202.85" rx="13.5" fill="white" stroke="#2534B6"/>
<rect x="5.23865" y="6.72449" width="97.0796" height="191.958" rx="9.5" fill="white" stroke="#2534B6"/>
<rect x="11.4658" y="26.9539" width="86.1818" height="151.499" rx="3.5" fill="#EDEFFF" stroke="#2534B6"/>
<path d="M58.7272 188.289C58.7272 191.451 56.1632 194.014 52.9999 194.014C49.8366 194.014 47.2727 191.451 47.2727 188.289C47.2727 185.128 49.8366 182.565 52.9999 182.565C56.1632 182.565 58.7272 185.128 58.7272 188.289Z" stroke="#2534B6"/>
<rect x="37.4318" y="15.561" width="3.11364" height="3.11222" fill="#E45A73"/>
<rect x="43.6591" y="15.561" width="23.3523" height="3.11222" fill="#E45A73"/>
<rect x="18.7499" y="60.6882" width="46.7045" height="3.11222" fill="#2534B6"/>
<rect x="31.2046" y="37.3466" width="46.7045" height="3.11222" fill="#E45A73"/>
<rect x="43.6591" y="43.571" width="21.7955" height="3.11222" fill="#E45A73"/>
<rect x="18.7499" y="66.9127" width="46.7045" height="3.11222" fill="#2534B6"/>
<rect x="18.7499" y="73.1371" width="46.7045" height="3.11222" fill="#2534B6"/>
<rect x="18.7499" y="79.3616" width="24.9091" height="3.11222" fill="#2534B6"/>
<rect x="35" y="103" width="54" height="3" fill="#E45A73"/>
<rect x="63.8978" y="108.928" width="24.9091" height="3.11222" fill="#E45A73"/>
</svg>
