<svg width="120" height="93" viewBox="0 0 120 93" fill="none" xmlns="http://www.w3.org/2000/svg">
<path d="M120 10.3731C115.003 11.8038 110.481 14.0692 106.436 17.1692C102.391 20.2692 98.9401 23.8462 96.0845 27.9C93.2289 31.7154 91.0872 35.8885 89.6594 40.4192C88.2316 44.95 87.7557 49.3615 88.2316 53.6538H108.935C110.838 56.2769 112.385 59.2577 113.575 62.5962C114.765 65.9346 115.36 68.9154 115.36 71.5385C115.36 75.5923 114.765 79.5269 113.575 83.3423C112.385 86.9192 110.838 90.1385 108.935 93H68.9564C65.149 84.1769 63.0073 75.7115 62.5313 67.6039C62.5313 54.0115 65.03 42.6846 70.0273 33.6231C75.2625 24.3231 81.5686 16.9308 88.9455 11.4462C96.5604 5.72307 104.77 1.90768 113.575 0L120 10.3731ZM57.4687 10.3731C52.4714 11.8038 47.95 14.0692 43.9046 17.1692C39.8592 20.2692 36.4087 23.8462 33.5531 27.9C30.6976 31.7154 28.5559 35.8885 27.1281 40.4192C25.7003 44.95 25.2243 49.3615 25.7003 53.6538H46.4033C48.307 56.2769 49.8538 59.2577 51.0436 62.5962C52.2334 65.9346 52.8283 68.9154 52.8283 71.5385C52.8283 75.5923 52.2334 79.5269 51.0436 83.3423C49.8538 86.9192 48.307 90.1385 46.4033 93H6.42507C2.61762 84.1769 0.475932 75.7115 0 67.6039C0 54.0115 2.49864 42.6846 7.49592 33.6231C12.7312 24.3231 19.0372 16.9308 26.4142 11.4462C34.0291 5.72307 42.2389 1.90768 51.0436 0L57.4687 10.3731Z" fill="#f1f3ff"/>
</svg>
