<svg width="133" height="18" viewBox="0 0 133 18" fill="none" xmlns="http://www.w3.org/2000/svg">
<path fill-rule="evenodd" clip-rule="evenodd" d="M15.9736 5.62555V4.35131C15.9802 3.7487 15.9011 3.14974 15.7401 2.58519C15.5811 2.05433 15.323 1.58425 14.9895 1.218C14.5959 0.802434 14.1412 0.497847 13.6536 0.32332C13.0047 0.0924599 12.334 -0.0157874 11.6617 0.00185557H0V2.66265H11.6617C12.8064 2.66265 13.3788 3.2165 13.3788 4.3242V5.65266C13.3788 6.76036 12.8064 7.31421 11.6617 7.31421H0V18H2.59183V9.97113H9.82944L13.0478 18H15.8169L12.5661 9.92078C13.7975 9.76328 14.6732 9.29722 15.1934 8.5226C15.7193 7.71769 15.9975 6.68479 15.9736 5.62555Z" fill="white"/>
<path fill-rule="evenodd" clip-rule="evenodd" d="M27.9765 0H26.0712L16.875 18H19.7836L27.0327 3.50549L34.1777 18H37.125L27.9765 0Z" fill="white"/>
<path fill-rule="evenodd" clip-rule="evenodd" d="M38.25 0V18H40.95V0H38.25Z" fill="white"/>
<path fill-rule="evenodd" clip-rule="evenodd" d="M59.8417 9.68366C59.6831 9.15287 59.4257 8.68284 59.093 8.31664C58.7004 7.90112 58.2468 7.59657 57.7606 7.42206C57.1131 7.19269 56.4441 7.08577 55.7737 7.10451H47.7203C46.5863 7.0916 46.0194 6.53136 46.0194 5.4238V4.32398C46.0194 3.21642 46.5903 2.66263 47.732 2.66263H59.3288V0.00215545H47.7203C47.0467 -0.0169714 46.3746 0.0912792 45.7246 0.323582C45.2378 0.496395 44.7839 0.801116 44.3922 1.21815C44.0641 1.58494 43.8125 2.05539 43.6611 2.58518C43.4995 3.14942 43.4196 3.74831 43.4253 4.35109V5.39669C43.4195 5.99822 43.4995 6.59585 43.6611 7.15873C43.816 7.68906 44.0717 8.15838 44.404 8.52188C44.7917 8.93979 45.2415 9.24707 45.7246 9.4242C46.371 9.65357 47.039 9.7605 47.7085 9.74175H55.7619C56.9057 9.74175 57.4746 10.2955 57.4746 11.4031V13.6763C57.4746 14.7878 56.9057 15.3377 55.7619 15.3377H43.8675V17.9981H55.7737C56.4443 18.0158 57.1133 17.9076 57.7606 17.6767C58.2468 17.5022 58.7004 17.1977 59.093 16.7821C59.4263 16.4167 59.6839 15.9465 59.8417 15.4151C60.0023 14.852 60.0813 14.2544 60.0746 13.6531V11.4302C60.0792 10.8342 60.0003 10.2421 59.8417 9.68366Z" fill="white"/>
<path fill-rule="evenodd" clip-rule="evenodd" d="M94.4893 0V13.3712L80.7739 0H78.525V18H80.7916V3.98967L95.4789 18H96.75V0H94.4893Z" fill="white"/>
<path fill-rule="evenodd" clip-rule="evenodd" d="M115.417 9.68767C115.258 9.15664 115.001 8.6864 114.669 8.32003C114.276 7.90357 113.821 7.59883 113.334 7.42506C112.688 7.19533 112.02 7.08835 111.351 7.10737H103.299C102.158 7.10737 101.587 6.55334 101.587 5.44528V4.3256C101.587 3.21755 102.158 2.66352 103.299 2.66352H114.89V0.00185647H103.299C102.63 -0.015794 101.962 0.0924917 101.316 0.323425C100.83 0.496316 100.376 0.801172 99.9843 1.21839C99.65 1.58256 99.3923 2.05346 99.236 2.58603C99.0745 3.15052 98.9946 3.74967 99.0003 4.35272V5.39879C98.9945 6.00059 99.0745 6.59848 99.236 7.16161C99.3924 7.69303 99.6501 8.16264 99.9843 8.52537C100.376 8.94259 100.83 9.24745 101.316 9.42034C101.962 9.64981 102.63 9.75679 103.299 9.73803H111.348C112.489 9.73803 113.06 10.2921 113.06 11.4001V13.6743C113.06 14.7863 112.488 15.3364 111.348 15.3364H99.4481V17.9981H111.348C112.017 18.016 112.685 17.9077 113.331 17.6765C113.818 17.5027 114.273 17.198 114.666 16.7816C114.999 16.4186 115.258 15.9509 115.417 15.4217C115.576 14.8578 115.655 14.2602 115.65 13.6588V11.435C115.653 10.8389 115.574 10.2469 115.417 9.68767Z" fill="white"/>
<path fill-rule="evenodd" clip-rule="evenodd" d="M117.9 2.6605V0H132.075V2.6605H117.9ZM120.504 9.8171V15.3356H132.075V18H117.9V7.1566H127.501V9.8171H120.504Z" fill="white"/>
<path fill-rule="evenodd" clip-rule="evenodd" d="M62.1 2.6605V0H76.275V2.6605H62.1ZM64.7042 9.8171V15.3356H76.275V18H62.1V7.1566H71.7013V9.8171H64.7042Z" fill="white"/>
</svg>
