<svg width="274" height="624" viewBox="0 0 274 624" fill="none" xmlns="http://www.w3.org/2000/svg">
<rect x="167.08" y="34.7346" width="106.42" height="202.85" rx="13.5" fill="white" stroke="#2534B6"/>
<rect x="171.75" y="40.9591" width="97.0796" height="191.958" rx="9.5" fill="white" stroke="#2534B6"/>
<rect x="177.977" y="61.1885" width="86.1818" height="151.499" rx="3.5" fill="#EDEFFF" stroke="#2534B6"/>
<path d="M225.239 222.524C225.239 225.685 222.675 228.248 219.511 228.248C216.348 228.248 213.784 225.685 213.784 222.524C213.784 219.363 216.348 216.799 219.511 216.799C222.675 216.799 225.239 219.363 225.239 222.524Z" stroke="#2534B6"/>
<rect x="203.943" y="49.7957" width="3.11364" height="3.11222" fill="#E45A73"/>
<rect x="210.17" y="49.7957" width="23.3523" height="3.11222" fill="#E45A73"/>
<rect x="185.261" y="94.923" width="46.7045" height="3.11222" fill="#2534B6"/>
<rect x="197.716" y="71.5813" width="46.7045" height="3.11222" fill="#E45A73"/>
<rect x="210.17" y="77.8058" width="21.7955" height="3.11222" fill="#E45A73"/>
<rect x="185.261" y="101.147" width="46.7045" height="3.11222" fill="#2534B6"/>
<rect x="185.261" y="107.372" width="46.7045" height="3.11222" fill="#2534B6"/>
<rect x="185.261" y="113.596" width="24.9091" height="3.11222" fill="#2534B6"/>
<rect x="208.614" y="136.938" width="46.7045" height="3.11222" fill="#E45A73"/>
<rect x="230.409" y="143.162" width="24.9091" height="3.11222" fill="#E45A73"/>
<rect x="0.5" y="34.7345" width="106.42" height="202.85" rx="13.5" fill="white" stroke="#2534B6"/>
<rect x="5.17041" y="40.959" width="97.0796" height="191.958" rx="9.5" fill="white" stroke="#2534B6"/>
<rect x="11.3978" y="61.1884" width="86.1818" height="151.499" rx="3.5" fill="#EDEFFF" stroke="#2534B6"/>
<path d="M58.6591 222.524C58.6591 225.685 56.0952 228.248 52.9319 228.248C49.7686 228.248 47.2046 225.685 47.2046 222.524C47.2046 219.363 49.7686 216.799 52.9319 216.799C56.0952 216.799 58.6591 219.363 58.6591 222.524Z" stroke="#2534B6"/>
<rect x="37.3636" y="49.7957" width="3.11364" height="3.11222" fill="#E45A73"/>
<rect x="43.5909" y="49.7957" width="23.3523" height="3.11222" fill="#E45A73"/>
<rect x="18.6819" y="94.9229" width="46.7045" height="3.11222" fill="#2534B6"/>
<rect x="31.1364" y="71.5812" width="46.7045" height="3.11222" fill="#E45A73"/>
<rect x="43.5909" y="77.8057" width="21.7955" height="3.11222" fill="#E45A73"/>
<rect x="18.6819" y="101.147" width="46.7045" height="3.11222" fill="#2534B6"/>
<rect x="18.6819" y="107.372" width="46.7045" height="3.11222" fill="#2534B6"/>
<rect x="18.6819" y="113.596" width="24.9091" height="3.11222" fill="#2534B6"/>
<rect x="42.0342" y="136.938" width="46.7045" height="3.11222" fill="#E45A73"/>
<rect x="63.8296" y="143.162" width="24.9091" height="3.11222" fill="#E45A73"/>
<rect x="84.5682" y="0.5" width="106.42" height="202.85" rx="13.5" fill="white" stroke="#2534B6"/>
<rect x="89.2386" y="6.72449" width="97.0796" height="191.958" rx="9.5" fill="white" stroke="#2534B6"/>
<rect x="95.4658" y="26.9539" width="86.1818" height="151.499" rx="3.5" fill="#EDEFFF" stroke="#2534B6"/>
<path d="M142.727 188.289C142.727 191.451 140.163 194.014 137 194.014C133.837 194.014 131.273 191.451 131.273 188.289C131.273 185.128 133.837 182.565 137 182.565C140.163 182.565 142.727 185.128 142.727 188.289Z" stroke="#2534B6"/>
<rect x="121.432" y="15.561" width="3.11364" height="3.11222" fill="#E45A73"/>
<rect x="127.659" y="15.561" width="23.3523" height="3.11222" fill="#E45A73"/>
<rect x="102.75" y="60.6882" width="46.7045" height="3.11222" fill="#2534B6"/>
<rect x="115.205" y="37.3466" width="46.7045" height="3.11222" fill="#E45A73"/>
<rect x="127.659" y="43.571" width="21.7955" height="3.11222" fill="#E45A73"/>
<rect x="102.75" y="66.9127" width="46.7045" height="3.11222" fill="#2534B6"/>
<rect x="102.75" y="73.1371" width="46.7045" height="3.11222" fill="#2534B6"/>
<rect x="102.75" y="79.3616" width="24.9091" height="3.11222" fill="#2534B6"/>
<rect x="126.102" y="102.703" width="46.7045" height="3.11222" fill="#E45A73"/>
<rect x="147.898" y="108.928" width="24.9091" height="3.11222" fill="#E45A73"/>
<path d="M19.6819 471.72C19.6819 467.854 22.8159 464.72 26.6819 464.72H244.205C248.071 464.72 251.205 467.854 251.205 471.72V623H19.6819V471.72Z" fill="white" stroke="#2534B6" stroke-width="2"/>
<path d="M55.4886 404.808C55.4886 400.942 58.6226 397.808 62.4886 397.808H208.398C212.264 397.808 215.398 400.942 215.398 404.808V623H55.4886V404.808Z" fill="#EDEFFF" stroke="#2534B6" stroke-width="2"/>
<path d="M80.3976 398.92H190.489V385.247C190.489 383.59 189.145 382.247 187.489 382.247H83.3976C81.7408 382.247 80.3976 383.59 80.3976 385.247V398.92Z" fill="white" stroke="#2534B6" stroke-width="2"/>
<rect x="1" y="-1" width="110.091" height="16.6733" rx="3" transform="matrix(1 0 0 -1 79.3976 432.155)" fill="white" stroke="#2534B6" stroke-width="2"/>
<rect x="1" y="-1" width="110.091" height="16.6733" rx="3" transform="matrix(1 0 0 -1 79.3976 461.72)" fill="white" stroke="#2534B6" stroke-width="2"/>
<rect x="1" y="-1" width="110.091" height="16.6733" rx="3" transform="matrix(1 0 0 -1 79.3976 491.287)" fill="white" stroke="#2534B6" stroke-width="2"/>
<rect x="1" y="-1" width="110.091" height="16.6733" rx="3" transform="matrix(1 0 0 -1 79.3976 520.853)" fill="white" stroke="#2534B6" stroke-width="2"/>
<rect x="1" y="-1" width="110.091" height="16.6733" rx="3" transform="matrix(1 0 0 -1 79.3976 550.419)" fill="white" stroke="#2534B6" stroke-width="2"/>
<rect x="1" y="-1" width="110.091" height="16.6733" rx="3" transform="matrix(1 0 0 -1 79.3976 579.985)" fill="white" stroke="#2534B6" stroke-width="2"/>
<rect x="1" y="-1" width="110.091" height="16.6733" rx="3" transform="matrix(1 0 0 -1 79.3976 609.551)" fill="white" stroke="#2534B6" stroke-width="2"/>
<path d="M232.966 530.628C232.966 523.449 238.786 517.628 245.966 517.628H251.205V623H232.966V530.628Z" fill="#EDEFFF" stroke="#2534B6" stroke-width="2"/>
<path d="M19.6819 517.628H24.9205C32.1002 517.628 37.9205 523.449 37.9205 530.628V623H19.6819V517.628Z" fill="#EDEFFF" stroke="#2534B6" stroke-width="2"/>
<ellipse cx="135.443" cy="382.803" rx="9.34091" ry="9.33666" fill="#2534B6"/>
<path d="M104.307 345.456C112.502 338.693 123.436 334.564 135.443 334.564C147.451 334.564 158.384 338.693 166.58 345.456" stroke="#E45A73" stroke-width="2"/>
<path d="M87.1819 322.115C99.8843 311.486 116.831 304.997 135.443 304.997C154.055 304.997 171.002 311.486 183.705 322.115" stroke="#E45A73" stroke-width="2"/>
<path d="M70.0568 297.217C87.2665 282.724 110.227 273.875 135.443 273.875C160.659 273.875 183.62 282.724 200.829 297.217" stroke="#E45A73" stroke-width="2"/>
</svg>
