<svg width="398" height="1000" viewBox="0 0 398 1000" fill="none" xmlns="http://www.w3.org/2000/svg">
<mask id="mask0" mask-type="alpha" maskUnits="userSpaceOnUse" x="0" y="0" width="398" height="1000">
<rect x="398" y="1000" width="398" height="1000" transform="rotate(-180 398 1000)" fill="#C4C4C4"/>
</mask>
<g mask="url(#mask0)">
<g opacity="0.2">
<g opacity="0.3">
<path opacity="0.3" d="M490.634 43.4723L374.504 61.3823C373.973 60.1591 373.153 59.0834 372.113 58.2476C371.074 57.4119 369.847 56.8412 368.539 56.5846C367.23 56.3281 365.879 56.3934 364.601 56.775C363.323 57.1565 362.157 57.8429 361.203 58.7749C360.25 59.707 359.537 60.8569 359.126 62.1256C358.715 63.3943 358.619 64.7438 358.845 66.0581C359.071 67.3723 359.614 68.6118 360.425 69.6699C361.237 70.728 362.294 71.5731 363.504 72.1323L332.774 223.312C331.553 223.362 330.358 223.683 329.277 224.251C328.195 224.82 327.253 225.623 326.521 226.601C325.788 227.579 325.282 228.708 325.04 229.906C324.798 231.104 324.826 232.341 325.122 233.527C325.417 234.713 325.974 235.818 326.75 236.762C327.526 237.706 328.502 238.465 329.609 238.985C330.715 239.505 331.923 239.771 333.145 239.766C334.367 239.76 335.573 239.482 336.674 238.952L407.774 349.172C406.777 350.075 406.017 351.209 405.561 352.474C405.105 353.739 404.966 355.097 405.158 356.428C405.349 357.76 405.865 359.024 406.66 360.109C407.454 361.194 408.503 362.068 409.714 362.652L356.294 546.092C355.979 546.052 355.662 546.032 355.344 546.032C353.794 546.032 352.275 546.469 350.962 547.294C349.65 548.119 348.597 549.298 347.925 550.695C347.253 552.092 346.989 553.651 347.165 555.191C347.34 556.732 347.946 558.191 348.914 559.402L277.914 635.742C276.265 634.624 274.265 634.142 272.287 634.388C270.309 634.633 268.488 635.589 267.162 637.078C265.836 638.566 265.097 640.485 265.081 642.479C265.064 644.472 265.773 646.403 267.074 647.912L156.304 777.122C155.047 776.344 153.603 775.919 152.124 775.893C150.645 775.866 149.187 776.239 147.902 776.973C146.618 777.706 145.555 778.772 144.826 780.059C144.097 781.346 143.728 782.805 143.759 784.284C143.79 785.763 144.22 787.206 145.002 788.461C145.785 789.716 146.892 790.736 148.206 791.415C149.52 792.094 150.993 792.405 152.469 792.317C153.946 792.228 155.371 791.743 156.594 790.912L233.424 873.382C232.552 874.472 231.972 875.766 231.738 877.142C231.504 878.518 231.624 879.93 232.088 881.247C232.551 882.564 233.342 883.741 234.386 884.667C235.429 885.593 236.692 886.239 238.054 886.542L218.524 1155.2L219.734 1155.29C218.542 1155.31 217.367 1155.58 216.291 1156.1C215.216 1156.61 214.265 1157.35 213.504 1158.27C212.744 1159.19 212.192 1160.26 211.887 1161.42C211.582 1162.57 211.531 1163.78 211.738 1164.95C211.945 1166.12 212.405 1167.24 213.086 1168.22C213.766 1169.2 214.652 1170.02 215.68 1170.62C216.709 1171.22 217.857 1171.6 219.044 1171.71C220.23 1171.83 221.428 1171.69 222.554 1171.29L267.894 1246.52C267.026 1247.27 266.324 1248.2 265.835 1249.23C265.346 1250.27 265.08 1251.4 265.055 1252.55C265.029 1253.69 265.245 1254.83 265.688 1255.89C266.13 1256.95 266.79 1257.9 267.624 1258.69L208.444 1343.08C207.113 1342.41 205.626 1342.12 204.141 1342.23C202.656 1342.34 201.229 1342.85 200.012 1343.71C198.795 1344.57 197.833 1345.74 197.229 1347.1C196.626 1348.46 196.403 1349.96 196.584 1351.44C196.766 1352.92 197.345 1354.32 198.26 1355.5C199.175 1356.67 200.392 1357.57 201.78 1358.11C203.169 1358.65 204.677 1358.8 206.145 1358.55C207.613 1358.3 208.984 1357.65 210.114 1356.68L304.114 1438.37C303.456 1439.41 303.038 1440.58 302.891 1441.8C302.745 1443.02 302.873 1444.25 303.267 1445.42C303.66 1446.58 304.309 1447.64 305.166 1448.52C306.023 1449.4 307.066 1450.07 308.218 1450.5C309.37 1450.92 310.603 1451.08 311.825 1450.96C313.047 1450.85 314.228 1450.46 315.281 1449.83C316.333 1449.2 317.231 1448.34 317.909 1447.31C318.586 1446.29 319.025 1445.13 319.194 1443.91L578.414 1440.91C578.631 1442.48 579.294 1443.95 580.323 1445.14C581.352 1446.34 582.704 1447.22 584.218 1447.67C585.732 1448.12 587.344 1448.13 588.861 1447.69C590.378 1447.25 591.736 1446.38 592.773 1445.19C593.81 1444 594.483 1442.53 594.71 1440.97C594.938 1439.4 594.711 1437.81 594.056 1436.37C593.402 1434.93 592.347 1433.72 591.019 1432.86C589.69 1432.01 588.144 1431.55 586.564 1431.55C585.41 1431.55 584.268 1431.79 583.214 1432.26L516.324 1329.77C517.495 1328.73 518.344 1327.38 518.774 1325.88C519.203 1324.37 519.194 1322.78 518.747 1321.28C518.301 1319.78 517.436 1318.44 516.254 1317.41C515.072 1316.39 513.622 1315.72 512.074 1315.49L512.074 1160.72C513.855 1160.46 515.499 1159.61 516.754 1158.32C518.009 1157.03 518.807 1155.36 519.023 1153.57C519.24 1151.79 518.865 1149.98 517.954 1148.42C517.044 1146.87 515.65 1145.66 513.984 1144.97L543.194 1026.29C543.444 1026.29 543.704 1026.29 543.964 1026.29C546.031 1026.29 548.024 1025.52 549.545 1024.12C551.066 1022.72 552.005 1020.8 552.175 1018.74C552.345 1016.68 551.734 1014.63 550.463 1013C549.192 1011.37 547.354 1010.28 545.314 1009.94L720.494 727.982C721.616 728.469 722.833 728.7 724.055 728.657C725.277 728.615 726.474 728.301 727.56 727.738C728.645 727.175 729.592 726.377 730.33 725.402C731.069 724.427 731.581 723.3 731.829 722.102C732.077 720.905 732.055 719.667 731.765 718.479C731.475 717.291 730.923 716.183 730.151 715.234C729.379 714.286 728.405 713.522 727.3 712.998C726.195 712.473 724.987 712.201 723.764 712.202C722.146 712.199 720.562 712.675 719.214 713.572L535.324 509.312C536.496 507.902 537.161 506.139 537.211 504.306C537.262 502.473 536.696 500.676 535.604 499.202L618.214 417.202C619.437 418.118 620.89 418.676 622.411 418.812C623.932 418.948 625.462 418.658 626.827 417.974C628.193 417.289 629.341 416.238 630.142 414.938C630.943 413.638 631.367 412.14 631.364 410.612C631.363 409.132 630.963 407.68 630.206 406.407C629.45 405.135 628.364 404.09 627.064 403.382L663.474 303.912C664.024 304.025 664.583 304.082 665.144 304.082C666.257 304.074 667.356 303.84 668.375 303.395C669.394 302.95 670.313 302.303 671.075 301.494C671.838 300.684 672.428 299.728 672.81 298.683C673.193 297.639 673.36 296.528 673.301 295.417C673.242 294.306 672.959 293.219 672.468 292.221C671.977 291.223 671.289 290.335 670.446 289.61C669.602 288.885 668.62 288.339 667.559 288.004C666.499 287.669 665.381 287.553 664.274 287.662L616.464 103.142C617.656 102.643 618.713 101.87 619.55 100.886C620.388 99.9027 620.982 98.7356 621.284 97.4797C621.587 96.2237 621.59 94.9142 621.292 93.657C620.995 92.3998 620.406 91.2303 619.572 90.2431C618.739 89.256 617.685 88.4788 616.495 87.9746C615.306 87.4704 614.015 87.2533 612.726 87.3409C611.437 87.4284 610.186 87.8182 609.076 88.4786C607.966 89.139 607.027 90.0515 606.334 91.1423L506.654 46.2023C506.944 45.3592 507.093 44.474 507.094 43.5823C507.109 41.3996 506.256 39.3005 504.723 37.7467C503.19 36.193 501.102 35.3119 498.919 35.2973C496.737 35.2828 494.638 36.1359 493.084 37.669C491.53 39.2021 490.649 41.2896 490.634 43.4723ZM247.994 877.332L262.834 872.972L349.174 940.972L247.484 881.522C247.879 880.55 248.082 879.511 248.084 878.462C248.08 878.084 248.05 877.706 247.994 877.332ZM227.904 1164.44L311.304 1154.73C311.82 1156.66 313.022 1158.34 314.684 1159.44L289.154 1213.91L226.714 1167.91C227.367 1166.86 227.773 1165.67 227.904 1164.44ZM212.834 1348.7L285.834 1322.21L308.214 1434.96C307.274 1435.3 306.404 1435.8 305.644 1436.45L211.644 1354.77C212.493 1353.45 212.945 1351.91 212.944 1350.34C212.959 1349.79 212.922 1349.24 212.834 1348.7ZM608.994 363.832L547.624 177.912C548.004 177.721 548.369 177.501 548.714 177.252L658.614 290.852C657.433 292.391 656.834 294.299 656.924 296.237C657.014 298.175 657.786 300.019 659.104 301.442L608.994 363.832ZM338.604 225.382L440.744 109.982L536.324 167.442C535.905 168.443 535.691 169.517 535.694 170.602C535.698 170.953 535.721 171.304 535.764 171.652L339.994 227.012C339.605 226.41 339.138 225.862 338.604 225.382ZM543.924 162.382C543.374 162.38 542.824 162.433 542.284 162.542L502.484 52.7023L564.614 146.432L548.554 163.812C547.194 162.871 545.578 162.369 543.924 162.372L543.924 162.382ZM565.994 148.492L656.864 285.572L550.444 175.572C551.571 174.113 552.173 172.317 552.153 170.473C552.133 168.63 551.492 166.847 550.334 165.412L565.994 148.492ZM607.154 366.072L590.674 386.582C589.417 385.84 587.984 385.45 586.524 385.452C586.404 385.452 586.294 385.452 586.184 385.452L548.594 188.622L607.154 366.072ZM608.054 368.812L619.434 403.292C618.146 403.942 617.049 404.918 616.254 406.122L594.414 396.002C594.64 395.25 594.754 394.468 594.754 393.682C594.754 391.611 593.968 389.617 592.554 388.102L608.054 368.812ZM616.504 415.502L533.904 497.502L533.804 497.432L583.804 401.432C585.532 402.037 587.412 402.045 589.145 401.456C590.878 400.867 592.363 399.714 593.364 398.182L615.214 408.292C614.853 409.506 614.778 410.788 614.997 412.036C615.215 413.284 615.721 414.464 616.474 415.482L616.504 415.502ZM280.934 645.552L412.224 676.302C412.224 676.522 412.224 676.752 412.224 676.972C412.229 677.612 412.306 678.25 412.454 678.872L310.754 719.442L277.874 649.372C279.257 648.437 280.324 647.106 280.934 645.552ZM315.534 1435.83L381.694 1293.2C383.096 1293.62 384.583 1293.65 386.002 1293.3C387.42 1292.95 388.719 1292.22 389.764 1291.2L465.694 1349.01L317.374 1437.49C316.847 1436.85 316.227 1436.29 315.534 1435.83ZM580.884 1433.66L469.994 1349.25L504.444 1328.7C505.596 1330.11 507.183 1331.1 508.956 1331.51C510.73 1331.92 512.59 1331.73 514.244 1330.97L581.124 1433.43L580.884 1433.66ZM503.944 1318.98C503.737 1319.3 503.55 1319.64 503.384 1319.98L392.154 1286.49C392.214 1286.1 392.245 1285.7 392.244 1285.3C392.257 1283.32 391.546 1281.4 390.244 1279.9L422.514 1246.3L503.944 1318.98ZM422.354 1242.98L326.114 1157.13C326.773 1156.14 327.203 1155.01 327.374 1153.82L502.694 1153.82C502.896 1155.22 503.458 1156.53 504.324 1157.64L422.354 1242.98ZM528.994 512.302C529.144 512.302 529.284 512.302 529.434 512.302L568.884 704.492C567.755 704.912 566.731 705.574 565.884 706.432L454.554 624.912L525.674 511.602C526.719 512.067 527.851 512.306 528.994 512.302ZM367.394 849.452C368.512 849.335 369.593 848.989 370.572 848.437C371.551 847.885 372.406 847.138 373.084 846.242L422.364 896.312L369.234 944.782C368.236 943.876 367.031 943.227 365.724 942.892L367.394 849.452ZM564.124 715.452L455.994 781.502L424.094 684.332C425.915 683.43 427.339 681.889 428.094 680.002L430.604 680.582L563.524 711.582C563.524 711.802 563.524 712.022 563.524 712.252C563.51 713.334 563.711 714.408 564.114 715.412L564.124 715.452ZM453.884 782.842L370.244 833.912C369.875 833.718 369.49 833.555 369.094 833.422L418.994 685.072C419.47 685.159 419.951 685.206 420.434 685.212C420.901 685.21 421.366 685.167 421.824 685.082L453.884 782.842ZM454.664 785.202L472.994 841.102C471.968 841.646 471.068 842.4 470.353 843.315C469.638 844.23 469.124 845.285 468.844 846.412L431.254 842.772L373.664 837.202C373.306 836.567 372.866 835.982 372.354 835.462L454.664 785.202ZM424.154 894.712L374.284 844.012C374.598 843.129 374.76 842.199 374.764 841.262C374.76 840.746 374.71 840.23 374.614 839.722L430.614 845.142L468.614 848.822C468.698 850.285 469.175 851.698 469.994 852.912L424.154 894.712ZM425.774 670.772L453.264 626.912L564.414 708.332C564.277 708.596 564.153 708.866 564.044 709.142L428.614 677.642C428.614 677.422 428.614 677.202 428.614 676.972C428.618 675.788 428.365 674.617 427.873 673.54C427.381 672.463 426.662 671.505 425.764 670.732L425.774 670.772ZM565.994 718.172L480.334 840.962C479.233 840.433 478.027 840.156 476.804 840.152C476.281 840.157 475.759 840.207 475.244 840.302L456.774 783.912L565.384 717.512C565.574 717.745 565.778 717.965 565.994 718.172ZM476.854 856.612C477.429 856.614 478.002 856.554 478.564 856.432L539.804 1010.98C539.555 1011.12 539.314 1011.28 539.084 1011.45L425.844 896.452L471.564 854.742C473.052 855.969 474.926 856.631 476.854 856.612ZM537.354 1013.15C537.12 1013.47 536.909 1013.8 536.724 1014.15L371.724 952.372C371.817 951.884 371.864 951.389 371.864 950.892C371.862 949.417 371.461 947.969 370.704 946.702L424.014 898.072L537.354 1013.15ZM503.214 1326.62L467.934 1347.62L391.224 1289.23C391.304 1289.09 391.364 1288.95 391.434 1288.81L418.434 1296.93L502.704 1322.26C502.641 1322.65 502.607 1323.05 502.604 1323.44C502.592 1324.53 502.8 1325.61 503.214 1326.62ZM420.684 1244.7L388.374 1278.34C387.069 1277.52 385.557 1277.08 384.014 1277.08C383.173 1277.09 382.337 1277.21 381.534 1277.46L323.894 1159.37C324.104 1159.22 324.314 1159.07 324.504 1158.91L420.684 1244.7ZM357.994 944.912L265.644 872.182L359.064 844.712C359.611 845.896 360.431 846.933 361.457 847.737C362.483 848.542 363.685 849.092 364.964 849.342L363.304 942.642C361.317 942.728 359.429 943.535 357.994 944.912ZM263.314 870.342L159.074 788.172C159.225 787.906 159.362 787.632 159.484 787.352L358.354 840.352C358.354 840.652 358.304 840.962 358.304 841.272C358.305 841.65 358.332 842.028 358.384 842.402L263.314 870.342ZM366.534 833.032C365.735 833.035 364.94 833.153 364.174 833.382L311.734 721.632L413.314 681.112C414.107 682.474 415.273 683.581 416.674 684.302L366.674 833.042C366.624 833.042 366.584 833.032 366.534 833.032ZM420.414 668.742C419.487 668.747 418.567 668.91 417.694 669.222L360.424 560.732C360.812 560.43 361.173 560.096 361.504 559.732L451.304 625.522L423.724 669.462C422.684 668.993 421.556 668.748 420.414 668.742ZM363.414 552.652L521.494 507.472C521.991 508.567 522.722 509.54 523.634 510.322L452.634 623.452L362.864 557.682C363.359 556.61 363.615 555.443 363.614 554.262C363.599 553.72 363.532 553.181 363.414 552.652ZM533.524 510.912L717.414 715.192C716.558 716.231 715.967 717.464 715.694 718.782L579.884 711.432C579.693 709.393 578.747 707.498 577.232 706.118C575.718 704.738 573.743 703.973 571.694 703.972C571.544 703.972 571.394 703.972 571.244 703.972L531.804 511.772C532.41 511.555 532.987 511.266 533.524 510.912ZM715.994 723.102L564.584 801.562L572.154 720.402C573.969 720.308 575.702 719.614 577.079 718.428C578.457 717.243 579.401 715.633 579.764 713.852L715.584 721.202C715.643 721.85 715.781 722.488 715.994 723.102ZM561.994 802.912L483.494 843.592C483.164 843.136 482.789 842.714 482.374 842.332L567.994 719.562C568.534 719.837 569.105 720.045 569.694 720.182L561.994 802.912ZM561.734 805.772L542.674 1009.99C542.454 1009.99 542.244 1010.06 542.034 1010.11L480.834 855.582C482.121 854.871 483.194 853.828 483.942 852.562C484.689 851.296 485.084 849.853 485.084 848.382C485.079 847.474 484.927 846.572 484.634 845.712L561.734 805.772ZM536.294 1021.26L453.094 1071.06L369.824 956.312C370.277 955.797 370.667 955.23 370.984 954.622L535.874 1016.37C535.529 1018 535.683 1019.7 536.314 1021.24L536.294 1021.26ZM450.994 1072.29L325.564 1147.37C324.657 1146.27 323.483 1145.43 322.154 1144.91L323.104 1140.67L363.724 959.082C365.228 959.094 366.706 958.689 367.994 957.912L450.994 1072.29ZM452.424 1074.29L505.024 1146.75C503.749 1148.01 502.917 1149.64 502.654 1151.41L327.374 1151.41C327.276 1150.75 327.098 1150.1 326.844 1149.48L452.424 1074.29ZM509.574 1160.76L509.574 1315.4C508.08 1315.62 506.676 1316.25 505.514 1317.21L424.124 1244.6L506.024 1159.33C507.095 1160.07 508.325 1160.55 509.614 1160.72L509.574 1160.76ZM578.364 1438.4L319.084 1441.4C318.988 1440.77 318.816 1440.16 318.574 1439.57L467.724 1350.57L579.344 1435.57C578.859 1436.44 578.54 1437.38 578.404 1438.36L578.364 1438.4ZM288.124 1321.4L376.734 1289.25C377.377 1290.46 378.312 1291.49 379.454 1292.25L313.294 1434.88C312.538 1434.66 311.753 1434.54 310.964 1434.54C310.834 1434.54 310.704 1434.54 310.574 1434.54L288.124 1321.4ZM287.644 1319L276.014 1260.41C277.098 1260.02 278.089 1259.41 278.923 1258.62C279.756 1257.83 280.414 1256.87 280.854 1255.8L375.754 1285.16L375.754 1285.34C375.782 1285.87 375.863 1286.4 375.994 1286.91L287.644 1319ZM277.014 1245.36L290.014 1217.58L376.674 1281.48C376.456 1281.89 376.272 1282.32 376.124 1282.76L281.394 1253.44C281.394 1253.19 281.394 1252.93 281.394 1252.67C281.41 1251.17 281.014 1249.69 280.249 1248.4C279.484 1247.1 278.379 1246.04 277.054 1245.33L277.014 1245.36ZM291.094 1215.36L316.834 1160.51C318.408 1161 320.091 1161 321.664 1160.51L378.994 1278.79C378.702 1279.01 378.424 1279.25 378.164 1279.51L291.094 1215.36ZM360.604 958.542C360.834 958.632 361.074 958.712 361.324 958.792L329.994 1099.05L319.854 1144.38C319.654 1144.38 319.464 1144.38 319.254 1144.38C317.114 1144.39 315.06 1145.22 313.527 1146.72C311.995 1148.21 311.104 1150.24 311.044 1152.38L227.844 1162.07C227.554 1160.44 226.773 1158.93 225.604 1157.75L360.604 958.542ZM239.854 870.232C238.19 870.231 236.564 870.737 235.194 871.682L163.524 794.762L260.524 871.142L247.334 875.012C246.677 873.582 245.622 872.372 244.296 871.524C242.97 870.677 241.428 870.228 239.854 870.232ZM159.934 782.232L309.484 722.532L361.994 834.412C360.668 835.294 359.626 836.541 358.994 838.002L160.124 785.002C160.165 784.694 160.185 784.383 160.184 784.072C160.172 783.438 160.088 782.808 159.934 782.192L159.934 782.232ZM158.144 778.742L268.904 649.482C270.215 650.312 271.734 650.752 273.284 650.752C274.084 650.754 274.88 650.636 275.644 650.402L308.454 720.342L158.994 779.912C158.749 779.484 158.464 779.079 158.144 778.702L158.144 778.742ZM279.714 637.392L350.714 561.042C351.816 561.803 353.088 562.282 354.419 562.437C355.749 562.592 357.097 562.419 358.344 561.932L415.584 670.352C414.338 671.263 413.375 672.508 412.804 673.942L281.484 643.202C281.484 642.972 281.484 642.752 281.484 642.522C281.494 640.661 280.869 638.852 279.714 637.392ZM492.994 459.912L522.994 498.442C521.531 499.971 520.714 502.006 520.714 504.122C520.721 504.48 520.747 504.838 520.794 505.192L362.594 550.372L362.504 550.212L492.994 459.912ZM494.994 458.532L580.494 399.352C580.846 399.724 581.235 400.059 581.654 400.352L531.654 496.352C530.794 496.046 529.887 495.89 528.974 495.892C527.556 495.892 526.161 496.257 524.924 496.952L494.994 458.532ZM493.504 456.622L419.134 361.082C419.923 360.283 420.539 359.33 420.944 358.282L429.814 360.282L578.284 393.182C578.284 393.372 578.284 393.562 578.284 393.762C578.288 395.022 578.582 396.265 579.144 397.392L493.504 456.622ZM418.894 349.222L448.994 306.692L578.994 390.302C578.924 390.445 578.864 390.592 578.814 390.742L429.814 357.742L421.504 355.912C421.504 355.712 421.504 355.502 421.504 355.292C421.515 354.155 421.288 353.028 420.839 351.982C420.389 350.937 419.727 349.997 418.894 349.222ZM450.414 304.712L540.204 177.912C541.356 178.503 542.631 178.811 543.924 178.812C544.034 178.812 544.144 178.812 544.254 178.812L583.804 385.912C582.465 386.379 581.269 387.185 580.334 388.252L450.414 304.712ZM448.414 303.402L340.894 234.272C341.47 232.663 341.522 230.913 341.044 229.272L536.424 173.972C536.853 174.937 537.468 175.807 538.234 176.532L448.414 303.402ZM373.564 69.5923L438.634 108.712L336.564 224.052C336.122 223.852 335.664 223.688 335.194 223.562L365.794 72.8323C366.192 72.8859 366.593 72.9126 366.994 72.9123C368.273 72.91 369.533 72.6086 370.673 72.0321C371.814 71.4556 372.804 70.62 373.564 69.5923ZM442.374 108.132L493.784 50.0523C495.231 51.1939 497.021 51.814 498.864 51.8123C499.104 51.8123 499.334 51.8123 499.574 51.8123L539.994 163.352C539.06 163.86 538.229 164.538 537.544 165.352L442.374 108.132ZM605.374 93.3323C605.017 94.5952 604.968 95.9252 605.231 97.211C605.493 98.4968 606.06 99.7009 606.884 100.722L566.344 144.592L503.734 50.2023C504.433 49.6872 505.047 49.0664 505.554 48.3623L605.374 93.3323ZM661.964 288.332L661.694 288.462L567.694 146.712L608.624 102.412C609.989 103.353 611.607 103.855 613.264 103.852C613.554 103.867 613.845 103.867 614.134 103.852L661.964 288.332ZM624.794 402.572C624.248 402.46 623.692 402.403 623.134 402.402C622.665 402.404 622.196 402.448 621.734 402.532L609.864 366.532L660.994 302.962C661.074 302.962 661.144 303.052 661.214 303.092L624.794 402.572ZM545.604 1004.91L564.304 804.472L717.104 725.242C717.487 725.784 717.937 726.275 718.444 726.702L545.604 1004.91ZM511.604 1144.43C511.354 1144.43 511.094 1144.43 510.834 1144.43C509.511 1144.44 508.207 1144.76 507.034 1145.37L454.554 1073.08L537.554 1023.39C538.416 1024.45 539.53 1025.28 540.794 1025.79L511.604 1144.43ZM269.604 1260.03C270.745 1260.61 272.005 1260.91 273.284 1260.91C273.414 1260.91 273.544 1260.91 273.674 1260.91L285.384 1319.91L211.994 1346.43C211.579 1345.68 211.046 1345.01 210.414 1344.43L269.604 1260.03ZM224.684 1170.08C224.844 1169.96 224.994 1169.83 225.144 1169.7L288.144 1216.13L274.794 1244.59C274.31 1244.5 273.818 1244.45 273.324 1244.45C272.166 1244.45 271.021 1244.7 269.964 1245.17L224.684 1170.08ZM240.474 886.662C241.594 886.588 242.686 886.283 243.682 885.767C244.679 885.25 245.558 884.534 246.264 883.662L355.994 947.792C355.336 949.434 355.225 951.244 355.677 952.953C356.129 954.663 357.121 956.181 358.504 957.282L223.614 1156.23C222.729 1155.76 221.762 1155.45 220.764 1155.32L220.904 1155.32L240.474 886.662ZM411.994 363.372C412.417 363.444 412.845 363.481 413.274 363.482C414.647 363.482 415.998 363.138 417.204 362.482L491.544 457.912L360.994 548.302C360.297 547.643 359.492 547.109 358.614 546.722L411.994 363.372ZM338.684 237.602C339.077 237.243 339.435 236.848 339.754 236.422L446.974 305.422L416.894 347.892C415.775 347.35 414.548 347.066 413.304 347.062C412.082 347.066 410.876 347.343 409.774 347.872L338.684 237.602ZM375.134 63.7323L490.994 45.9123C491.242 46.7737 491.631 47.5881 492.144 48.3223L440.264 106.912L374.714 67.4923C375.033 66.607 375.195 65.6732 375.194 64.7323C375.196 64.398 375.176 64.064 375.134 63.7323Z" fill="#2534B6"/>
</g>
<path d="M403.594 989.162C404.56 989.172 405.513 988.95 406.374 988.513C407.234 988.076 407.977 987.438 408.538 986.652C409.1 985.867 409.463 984.958 409.599 984.002C409.734 983.047 409.636 982.072 409.314 981.162L482.314 948.252C482.832 949.024 483.522 949.666 484.33 950.125C485.138 950.585 486.042 950.851 486.97 950.902C487.898 950.953 488.825 950.787 489.678 950.418C490.532 950.049 491.288 949.487 491.887 948.776C492.485 948.065 492.911 947.225 493.13 946.322C493.348 945.418 493.354 944.476 493.146 943.57C492.938 942.664 492.523 941.819 491.933 941.1C491.342 940.382 490.593 939.811 489.744 939.432L524.744 804.222C524.954 804.222 525.174 804.222 525.384 804.222C526.984 804.222 528.517 803.587 529.648 802.456C530.779 801.325 531.414 799.792 531.414 798.192C531.414 796.593 530.779 795.059 529.648 793.928C528.517 792.798 526.984 792.162 525.384 792.162C524.975 792.162 524.566 792.202 524.164 792.282L497.484 719.382C498.826 718.523 499.772 717.166 500.113 715.609C500.455 714.053 500.164 712.424 499.304 711.082C498.445 709.74 497.088 708.795 495.531 708.453C493.975 708.112 492.346 708.403 491.004 709.262L430.474 649.192C431.274 648.112 431.689 646.795 431.651 645.451C431.612 644.107 431.124 642.815 430.264 641.782L565.054 492.202C565.834 492.719 566.723 493.047 567.651 493.159C568.579 493.271 569.521 493.165 570.401 492.848C571.281 492.532 572.075 492.014 572.719 491.337C573.363 490.659 573.84 489.84 574.112 488.945C574.384 488.051 574.443 487.105 574.284 486.183C574.125 485.262 573.753 484.39 573.198 483.638C572.642 482.886 571.919 482.274 571.085 481.851C570.251 481.428 569.329 481.206 568.394 481.202C567.57 481.204 566.754 481.371 565.994 481.692L437.604 275.012C438.392 274.947 439.16 274.726 439.862 274.364C440.565 274.002 441.19 273.505 441.701 272.901C442.211 272.298 442.598 271.6 442.839 270.846C443.08 270.093 443.17 269.3 443.104 268.512C443.039 267.724 442.819 266.957 442.456 266.254C442.094 265.551 441.597 264.927 440.993 264.416C440.39 263.905 439.692 263.519 438.939 263.278C438.185 263.037 437.392 262.947 436.604 263.012C436.414 263.012 436.224 263.012 436.044 263.012L414.644 176.012C415.886 175.529 416.931 174.646 417.615 173.503C418.299 172.36 418.583 171.021 418.423 169.699C418.262 168.377 417.666 167.145 416.729 166.199C415.791 165.252 414.565 164.645 413.244 164.472L413.244 51.2523C414.385 51.0935 415.456 50.6098 416.329 49.859C417.202 49.1082 417.841 48.122 418.169 47.0181C418.496 45.9142 418.5 44.7392 418.178 43.6335C417.856 42.5278 417.223 41.538 416.354 40.7823L465.354 -34.3077C466.504 -33.7989 467.784 -33.6638 469.014 -33.9215C470.244 -34.1792 471.362 -34.8167 472.21 -35.744C473.059 -36.6713 473.594 -37.8415 473.742 -39.0896C473.889 -40.3377 473.641 -41.6006 473.033 -42.7002C472.424 -43.7997 471.485 -44.6803 470.349 -45.2178C469.213 -45.7552 467.937 -45.9223 466.701 -45.6956C465.465 -45.4688 464.331 -44.8596 463.46 -43.9539C462.588 -43.0482 462.023 -41.8917 461.844 -40.6477L271.924 -42.8777C271.816 -44.469 271.079 -45.9519 269.877 -47.0003C268.675 -48.0486 267.106 -48.5765 265.514 -48.4677C263.923 -48.359 262.44 -47.6226 261.392 -46.4204C260.344 -45.2183 259.816 -43.649 259.924 -42.0577C259.939 -40.904 260.286 -39.7791 260.924 -38.8177L191.994 21.0423C190.906 20.107 189.519 19.5926 188.084 19.5923C186.485 19.5923 184.951 20.2276 183.821 21.3584C182.69 22.4893 182.054 24.023 182.054 25.6223C182.054 27.2215 182.69 28.7553 183.821 29.8861C184.951 31.017 186.485 31.6523 188.084 31.6523C189.02 31.6508 189.942 31.4281 190.774 31.0023L234.144 92.8423C233.533 93.418 233.049 94.1159 232.724 94.8906C232.399 95.6653 232.24 96.4996 232.258 97.3395C232.276 98.1795 232.47 99.0063 232.828 99.7664C233.185 100.527 233.699 101.203 234.334 101.752L201.134 156.912C200.471 156.671 199.771 156.545 199.064 156.542C197.465 156.542 195.931 157.178 194.801 158.308C193.67 159.439 193.034 160.973 193.034 162.572C193.034 164.172 193.67 165.705 194.801 166.836C195.931 167.967 197.465 168.602 199.064 168.602L198.184 168.672L212.494 365.502C211.493 365.72 210.564 366.19 209.796 366.868C209.028 367.546 208.446 368.409 208.107 369.375C207.767 370.342 207.68 371.379 207.855 372.389C208.029 373.398 208.46 374.346 209.104 375.142L152.804 435.572C151.911 434.967 150.871 434.614 149.793 434.55C148.716 434.486 147.641 434.714 146.683 435.21C145.724 435.705 144.917 436.45 144.346 437.366C143.775 438.282 143.462 439.335 143.44 440.414C143.417 441.493 143.686 442.558 144.218 443.497C144.75 444.436 145.526 445.214 146.463 445.749C147.4 446.285 148.464 446.557 149.543 446.538C150.623 446.519 151.676 446.21 152.594 445.642L233.754 540.322C232.801 541.414 232.276 542.813 232.274 544.262C232.259 545.367 232.549 546.454 233.112 547.405C233.675 548.355 234.489 549.132 235.465 549.649C236.442 550.166 237.542 550.404 238.644 550.335C239.747 550.267 240.809 549.896 241.714 549.262L293.714 605.192C292.991 606.076 292.535 607.147 292.4 608.281C292.264 609.414 292.455 610.563 292.949 611.592C293.444 612.621 294.222 613.487 295.192 614.09C296.161 614.692 297.283 615.005 298.424 614.992C298.657 615.008 298.891 615.008 299.124 614.992L338.264 749.402C337.373 749.828 336.601 750.467 336.017 751.262C335.432 752.058 335.052 752.985 334.912 753.963C334.772 754.94 334.874 755.937 335.211 756.865C335.549 757.793 336.109 758.623 336.844 759.282L284.744 840.042C283.943 839.682 283.073 839.502 282.195 839.516C281.317 839.529 280.452 839.735 279.662 840.118C278.872 840.502 278.176 841.055 277.624 841.737C277.071 842.419 276.674 843.215 276.462 844.067C276.25 844.919 276.228 845.808 276.397 846.669C276.566 847.531 276.922 848.345 277.44 849.055C277.958 849.764 278.626 850.35 279.395 850.773C280.165 851.196 281.018 851.445 281.894 851.502L304.374 962.282C303.508 962.704 302.756 963.327 302.181 964.1C301.607 964.874 301.227 965.774 301.074 966.725C300.921 967.676 301 968.65 301.302 969.565C301.605 970.479 302.124 971.307 302.814 971.979C303.505 972.651 304.347 973.146 305.269 973.424C306.192 973.701 307.168 973.753 308.114 973.573C309.061 973.394 309.95 972.99 310.707 972.394C311.464 971.799 312.067 971.03 312.464 970.152L397.564 983.282C397.596 984.858 398.246 986.358 399.374 987.458C400.503 988.558 402.018 989.171 403.594 989.162ZM219.844 371.382C219.842 370.614 219.693 369.854 219.404 369.142L293.914 325.572L230.654 375.402L219.784 372.212C219.82 371.937 219.84 371.66 219.844 371.382ZM204.184 159.382L249.934 125.652L268.644 165.522C267.425 166.331 266.543 167.558 266.164 168.972L205.054 161.862C204.958 160.974 204.66 160.119 204.184 159.362L204.184 159.382ZM194.134 25.6223C194.136 24.4702 193.807 23.3419 193.184 22.3723L261.994 -37.4777C262.553 -37.0019 263.193 -36.6325 263.884 -36.3877L247.484 46.2323L193.994 26.8223C194.081 26.428 194.128 26.026 194.134 25.6223ZM520.994 794.192C520.026 795.232 519.459 796.582 519.393 798.001C519.327 799.42 519.767 800.817 520.634 801.942L440.104 885.162C439.851 884.981 439.583 884.821 439.304 884.682L484.304 748.472L520.994 794.192ZM287.184 848.732L430.614 889.292C430.582 889.548 430.566 889.805 430.564 890.062C430.561 890.855 430.718 891.641 431.024 892.372L361.024 934.482L286.174 849.912C286.564 849.562 286.91 849.166 287.204 848.732L287.184 848.732ZM439.994 895.042L451.754 907.782L406.224 976.452L435.394 895.972C435.789 896.052 436.191 896.093 436.594 896.092C437.808 896.094 438.993 895.728 439.994 895.042ZM441.294 893.842C442.145 892.791 442.616 891.484 442.631 890.131C442.645 888.779 442.203 887.461 441.374 886.392L519.374 805.822L452.784 906.262L441.294 893.842ZM440.024 876.842L467.584 732.622C467.664 732.622 467.744 732.622 467.824 732.622C468.896 732.619 469.949 732.333 470.874 731.792L482.944 746.792L440.024 876.842ZM472.254 730.692C472.96 729.926 473.455 728.99 473.693 727.976C473.932 726.961 473.904 725.903 473.614 724.902L489.614 717.492C490.195 718.375 490.999 719.09 491.944 719.562L483.604 744.822L472.254 730.692ZM488.624 714.182C488.626 714.758 488.71 715.33 488.874 715.882L472.874 723.292C472.331 722.46 471.59 721.776 470.717 721.302C469.845 720.827 468.868 720.576 467.874 720.572C467.194 720.57 466.518 720.682 465.874 720.902L429.224 650.592L429.294 650.592L489.824 710.662C489.062 711.679 488.641 712.911 488.624 714.182ZM241.624 539.242L265.734 487.912L340.254 517.642C340.142 518.097 340.085 518.564 340.084 519.032C340.074 519.195 340.074 519.359 340.084 519.522L243.884 542.052C243.436 540.913 242.655 539.934 241.644 539.242L241.624 539.242ZM270.624 -38.2377L379.294 26.5923L323.654 68.9123C322.887 68.1675 321.936 67.6391 320.897 67.381C319.859 67.1228 318.772 67.1439 317.744 67.4423L269.264 -37.0177C269.774 -37.3534 270.229 -37.7648 270.614 -38.2377L270.624 -38.2377ZM463.894 -35.2377L414.894 39.8423C413.682 39.2785 412.317 39.1356 411.014 39.4363C409.711 39.737 408.547 40.4642 407.704 41.5023L382.454 26.4123L463.694 -35.4377C463.753 -35.3759 463.817 -35.319 463.884 -35.2677L463.894 -35.2377ZM347.634 101.842L323.994 77.2223C324.961 76.1152 325.488 74.6919 325.474 73.2223C325.477 72.9308 325.453 72.6397 325.404 72.3523L406.914 47.9123C407.037 48.1663 407.174 48.4134 407.324 48.6523L347.634 101.842ZM407.634 166.842C407.008 167.657 406.599 168.617 406.444 169.632L277.944 169.632C277.812 168.77 277.498 167.945 277.024 167.212L347.544 104.302L407.634 166.842ZM423.284 640.192L371.174 557.192L452.714 497.452C453.328 498.09 454.071 498.588 454.894 498.912L425.994 639.702C425.884 639.702 425.774 639.702 425.664 639.702C424.833 639.699 424.009 639.866 423.244 640.192L423.284 640.192ZM305.994 324.172C306.953 323.928 307.835 323.45 308.564 322.782L347.494 358.312L311.394 394.992C310.897 394.334 310.269 393.786 309.549 393.382C308.83 392.977 308.035 392.726 307.214 392.642L305.994 324.172ZM450.894 493.172L450.894 493.662L353.504 516.332L351.664 516.762C351.116 515.385 350.08 514.257 348.754 513.592L372.194 442.422L451.414 490.852C451.097 491.598 450.933 492.401 450.934 493.212L450.894 493.172ZM347.094 513.042C346.764 512.983 346.43 512.953 346.094 512.952C345.739 512.95 345.384 512.984 345.034 513.052L308.514 404.372C308.803 404.273 309.084 404.153 309.354 404.012L370.634 441.482L347.094 513.042ZM310.914 402.912C311.301 402.534 311.638 402.107 311.914 401.642L354.114 397.552L381.624 394.912C381.823 395.734 382.193 396.504 382.71 397.173C383.227 397.841 383.879 398.393 384.624 398.792L371.174 439.792L310.914 402.912ZM382.424 390.152C381.829 391.045 381.483 392.081 381.424 393.152L353.554 395.852L312.554 399.852C312.757 398.8 312.674 397.712 312.314 396.702L348.854 359.582L382.424 390.152ZM352.144 519.042L352.144 518.552L451.374 495.442C451.452 495.648 451.542 495.848 451.644 496.042L370.204 555.702L349.994 523.592C350.663 523.033 351.202 522.334 351.574 521.545C351.945 520.755 352.14 519.895 352.144 519.022L352.144 519.042ZM452.334 489.342L372.754 440.692L386.334 399.342C386.707 399.414 387.085 399.451 387.464 399.452C388.361 399.455 389.247 399.253 390.054 398.862L452.824 488.862C452.652 489.013 452.488 489.173 452.334 489.342ZM383.594 388.802L350.094 358.242L433.094 273.932C433.265 274.058 433.442 274.175 433.624 274.282L388.754 387.522C388.34 387.437 387.918 387.394 387.494 387.392C386.068 387.384 384.685 387.884 383.594 388.802ZM348.784 357.042L309.724 321.412C310.279 320.484 310.573 319.424 310.574 318.342C310.573 317.98 310.537 317.618 310.464 317.262L431.344 271.992C431.479 272.237 431.633 272.472 431.804 272.692L348.784 357.042ZM406.334 45.2923C406.337 45.5836 406.361 45.8743 406.404 46.1623L344.654 64.7223L324.884 70.6623L324.734 70.3623L380.934 27.5723L406.784 43.0023C406.486 43.7288 406.333 44.5069 406.334 45.2923ZM275.844 165.912L275.394 165.572L317.624 79.0423C318.214 79.2267 318.827 79.3211 319.444 79.3223C320.577 79.3237 321.686 79.0047 322.644 78.4023L346.314 103.042L275.844 165.912ZM304.264 324.382L305.484 392.742C304.546 392.923 303.665 393.324 302.914 393.914C302.162 394.504 301.563 395.264 301.164 396.132L232.744 376.032L300.404 322.742C301.455 323.728 302.825 324.303 304.264 324.362L304.264 324.382ZM300.664 397.832C300.624 398.107 300.604 398.385 300.604 398.662C300.589 398.889 300.589 399.116 300.604 399.342L154.884 438.162C154.795 437.955 154.691 437.755 154.574 437.562L230.994 377.362L300.664 397.832ZM306.734 404.682L343.374 513.682C342.346 514.209 341.492 515.022 340.914 516.022L266.484 486.322L304.904 404.412C305.465 404.585 306.048 404.673 306.634 404.672C306.634 404.672 306.704 404.662 306.734 404.662L306.734 404.682ZM348.534 524.562L368.754 556.752L302.944 604.912C302.703 604.64 302.439 604.389 302.154 604.162L344.154 524.672C344.796 524.902 345.473 525.02 346.154 525.022C346.972 525.023 347.781 524.86 348.534 524.542L348.534 524.562ZM304.464 608.912C304.463 608.049 304.275 607.196 303.914 606.412L369.694 558.242L421.744 641.132C421.077 641.708 420.541 642.421 420.174 643.222L304.344 610.112C304.427 609.718 304.467 609.315 304.464 608.912ZM427.734 640.032L456.634 499.202C456.744 499.202 456.854 499.202 456.964 499.202C458.468 499.208 459.919 498.649 461.03 497.636C462.141 496.623 462.832 495.23 462.964 493.732L562.484 488.352C562.682 489.319 563.114 490.223 563.744 490.982L428.994 640.692C428.6 640.432 428.177 640.217 427.734 640.052L427.734 640.032ZM562.384 486.612L462.874 492.002C462.611 490.694 461.92 489.511 460.909 488.64C459.899 487.769 458.627 487.26 457.294 487.192L451.744 427.732L562.694 485.222C562.536 485.672 562.432 486.138 562.384 486.612ZM455.524 487.362C455.096 487.466 454.68 487.617 454.284 487.812L391.524 397.912C391.832 397.635 392.11 397.327 392.354 396.992L449.874 426.802L455.524 487.362ZM393.174 395.362C393.642 394.021 393.618 392.556 393.107 391.231C392.596 389.905 391.631 388.803 390.384 388.122L435.244 274.912C435.399 274.953 435.556 274.983 435.714 275.002L449.714 424.642L393.174 395.362ZM430.584 269.072C430.587 269.496 430.631 269.917 430.714 270.332L309.894 315.582C309.665 315.135 309.379 314.718 309.044 314.342L370.044 230.272L431.044 266.762C430.738 267.494 430.581 268.279 430.584 269.072ZM307.684 313.202C306.757 312.632 305.693 312.324 304.604 312.312L274.844 179.252L274.144 176.142C275.118 175.766 275.979 175.147 276.644 174.342L368.554 229.342L307.684 313.202ZM277.554 172.822C277.737 172.368 277.868 171.895 277.944 171.412L406.404 171.412C406.596 172.708 407.208 173.906 408.144 174.822L369.594 227.912L277.554 172.822ZM408.874 165.612L348.874 103.122L408.504 49.9123C409.361 50.6258 410.4 51.0864 411.504 51.2423L411.504 164.562C410.557 164.697 409.655 165.057 408.874 165.612ZM462.594 -36.8277L380.814 25.4323L271.524 -39.7577C271.701 -40.1843 271.826 -40.631 271.894 -41.0877L461.894 -38.8677C462.006 -38.1519 462.243 -37.4614 462.594 -36.8277ZM265.664 -36.0377C265.754 -36.0377 265.854 -36.0377 265.954 -36.0377C266.53 -36.0391 267.103 -36.1233 267.654 -36.2877L316.134 68.2223C315.298 68.7678 314.61 69.5137 314.134 70.3923L249.204 46.8423L265.664 -36.0377ZM313.534 72.0723C313.453 72.4671 313.413 72.8692 313.414 73.2723L313.414 73.4023L243.884 94.9123C243.562 94.1305 243.08 93.425 242.469 92.8411C241.857 92.2572 241.13 91.8079 240.334 91.5223L248.854 48.5923L313.534 72.0723ZM244.334 97.2123L244.334 96.6423L313.744 75.1623C313.851 75.4831 313.985 75.7943 314.144 76.0923L250.624 122.912L241.074 102.552C242.056 102.048 242.88 101.283 243.456 100.341C244.031 99.3987 244.335 98.3161 244.334 97.2123ZM315.174 77.5223C315.365 77.7094 315.565 77.8863 315.774 78.0523L273.774 164.762C273.191 164.586 272.584 164.495 271.974 164.492C271.389 164.492 270.806 164.576 270.244 164.742L251.394 124.552L315.174 77.5223ZM203.354 166.782C204.21 165.916 204.782 164.811 204.994 163.612L265.994 170.712C266.036 172.276 266.687 173.761 267.807 174.852C268.928 175.943 270.43 176.553 271.994 176.552C272.134 176.552 272.284 176.552 272.424 176.552L279.854 209.772L302.854 312.572L302.324 312.752L203.354 166.782ZM219.284 373.912L228.944 376.752L157.884 432.752L210.394 376.352C211.116 376.855 211.94 377.193 212.807 377.342C213.674 377.491 214.563 377.447 215.411 377.214C216.259 376.981 217.046 376.565 217.715 375.994C218.384 375.424 218.92 374.713 219.284 373.912ZM155.414 440.532C155.43 440.309 155.43 440.085 155.414 439.862L301.094 401.032C301.56 402.102 302.324 403.015 303.294 403.662L264.834 485.662L155.254 441.912C155.358 441.459 155.411 440.997 155.414 440.532ZM154.594 443.532L264.084 487.202L240.084 538.452C239.524 538.278 238.941 538.191 238.354 538.192C237.221 538.194 236.112 538.516 235.154 539.122L153.994 444.442C154.218 444.169 154.418 443.878 154.594 443.572L154.594 443.532ZM244.334 544.222L244.334 543.732L340.534 521.202C340.942 522.249 341.635 523.16 342.534 523.832L300.594 603.282C299.901 603.005 299.161 602.862 298.414 602.862C297.196 602.861 296.007 603.231 295.004 603.922L243.004 547.992C243.857 546.935 244.326 545.62 244.334 544.262L244.334 544.222ZM303.684 611.912L303.744 611.802L419.694 644.912C419.655 645.17 419.634 645.431 419.634 645.692C419.633 647.243 420.231 648.733 421.304 649.852L399.304 678.092L303.684 611.912ZM422.684 650.972C423.597 651.495 424.633 651.764 425.684 651.752C426.365 651.754 427.041 651.643 427.684 651.422L464.334 721.732C464.028 721.959 463.744 722.213 463.484 722.492L400.834 679.132L422.684 650.972ZM462.404 723.972C461.99 724.798 461.774 725.709 461.774 726.632L461.774 727.052L352.994 751.132L346.494 752.572C346.192 751.825 345.743 751.145 345.174 750.572L399.664 680.572L462.404 723.972ZM346.924 754.792C346.924 754.632 346.924 754.482 346.924 754.332L352.994 752.912L462.204 728.762L462.334 729.082L367.074 790.342L344.994 759.182C345.608 758.621 346.098 757.938 346.434 757.177C346.77 756.416 346.943 755.594 346.944 754.762L346.924 754.792ZM463.294 730.572C463.981 731.352 464.855 731.944 465.834 732.292L436.834 884.042C436.744 884.042 436.664 884.042 436.584 884.042C435.639 884.044 434.708 884.267 433.864 884.692L368.064 791.802L463.294 730.572ZM432.444 885.712C431.889 886.249 431.441 886.888 431.124 887.592L287.994 847.092C288.16 846.548 288.244 845.982 288.244 845.412C288.242 844.73 288.12 844.053 287.884 843.412L366.644 792.762L432.444 885.712ZM306.994 961.632C306.706 961.635 306.419 961.659 306.134 961.702L283.674 851.252C284.017 851.163 284.351 851.046 284.674 850.902L359.464 935.412L311.784 964.072C311.231 963.321 310.509 962.709 309.678 962.286C308.846 961.862 307.927 961.638 306.994 961.632ZM431.994 893.912C432.489 894.513 433.093 895.015 433.774 895.392L404.144 977.152C403.971 977.142 403.798 977.142 403.624 977.152C402.275 977.156 400.966 977.61 399.904 978.442L362.234 935.882L431.994 893.912ZM408.534 979.652C408.161 979.135 407.709 978.68 407.194 978.302L452.994 909.122L482.694 941.262C481.831 942.333 481.361 943.667 481.364 945.042C481.364 945.597 481.441 946.149 481.594 946.682L408.534 979.652ZM488.084 939.062C487.874 939.062 487.664 939.062 487.444 939.062C486.236 939.046 485.051 939.394 484.044 940.062L454.044 907.602L522.884 803.732L523.084 803.832L488.084 939.062ZM522.584 793.002C522.527 793.03 522.474 793.063 522.424 793.102L484.964 746.492L493.654 720.132C493.984 720.194 494.319 720.228 494.654 720.232C495.065 720.235 495.474 720.192 495.874 720.102L522.584 793.002ZM564.494 482.582C564.123 482.901 563.788 483.26 563.494 483.652L451.494 425.652L437.794 278.782L564.494 482.582ZM434.324 263.492C433.401 263.87 432.587 264.471 431.954 265.242L371.124 228.832L409.574 175.832C410.437 176.278 411.393 176.511 412.364 176.512C412.551 176.523 412.738 176.523 412.924 176.512L434.324 263.492ZM192.244 29.9923C192.71 29.5551 193.102 29.0451 193.404 28.4823L247.174 47.9923L238.594 91.1923C238.504 91.1923 238.404 91.1923 238.304 91.1923C237.37 91.1907 236.448 91.4099 235.614 91.8323L192.244 29.9923ZM235.854 102.712C236.624 103.062 237.459 103.243 238.304 103.242C238.667 103.24 239.028 103.206 239.384 103.142L249.164 123.992L203.034 157.992C202.924 157.892 202.814 157.802 202.694 157.712L235.854 102.712ZM199.994 168.512L199.894 168.512C200.626 168.416 201.333 168.189 201.984 167.842L300.824 313.622C299.808 314.427 299.08 315.538 298.748 316.791C298.416 318.044 298.499 319.371 298.984 320.572L218.554 367.572C218.039 366.926 217.395 366.394 216.663 366.008C215.932 365.623 215.129 365.393 214.304 365.332L199.994 168.512ZM300.844 614.462C301.489 614.182 302.078 613.79 302.584 613.302L398.234 679.512L343.784 749.452C342.901 748.971 341.91 748.72 340.904 748.722C340.593 748.728 340.282 748.755 339.974 748.802L300.844 614.462ZM338.324 760.202C339.137 760.594 340.027 760.797 340.929 760.797C341.831 760.797 342.722 760.594 343.534 760.202L365.534 791.322L286.994 841.832C286.755 841.521 286.491 841.23 286.204 840.962L338.324 760.202ZM312.994 967.662C312.991 966.98 312.869 966.303 312.634 965.662L360.634 936.782L398.634 979.712C398.258 980.249 397.971 980.844 397.784 981.472L312.924 968.382C312.994 968.132 312.994 967.912 312.994 967.662Z" fill="#2534B6"/>
</g>
</g>
</svg>
