<svg width="74" height="52" viewBox="0 0 74 52" fill="none" xmlns="http://www.w3.org/2000/svg">
<path d="M0 45H74" stroke="#2534B6" stroke-width="2" stroke-miterlimit="10"/>
<path d="M13 51H44" stroke="#2534B6" stroke-width="2" stroke-miterlimit="10"/>
<path d="M49 51H58" stroke="#2534B6" stroke-width="2" stroke-miterlimit="10"/>
<path d="M27 7H16V38H27V7Z" fill="#EDEFFF"/>
<path d="M19 12H24" stroke="#2534B6" stroke-width="2" stroke-miterlimit="10" stroke-linecap="square"/>
<path d="M19 16H24" stroke="#2534B6" stroke-width="2" stroke-miterlimit="10" stroke-linecap="square"/>
<path d="M19 20H24" stroke="#2534B6" stroke-width="2" stroke-miterlimit="10" stroke-linecap="square"/>
<path d="M19 24H24" stroke="#2534B6" stroke-width="2" stroke-miterlimit="10" stroke-linecap="square"/>
<path d="M19 28H24" stroke="#2534B6" stroke-width="2" stroke-miterlimit="10" stroke-linecap="square"/>
<path d="M64 33.1034V39H10V3.62069C10 2.17931 11.0565 1 12.3478 1H61.6522C62.9435 1 64 2.17931 64 3.62069V10.2379V33.1034Z" stroke="#2534B6" stroke-width="2" stroke-miterlimit="10" stroke-linecap="square"/>
<path d="M46.405 6H59V8.79231V33.2885V39H15V6H27.375H46.405Z" stroke="#2534B6" stroke-width="2" stroke-miterlimit="10" stroke-linecap="square"/>
<path d="M33 42H41" stroke="#2534B6" stroke-width="2" stroke-miterlimit="10" stroke-linecap="square"/>
<path d="M66.2778 45H7.72222C6.7463 45 6 44.22 6 43.2V39H68V43.2C68 44.22 67.2537 45 66.2778 45Z" stroke="#2534B6" stroke-width="2" stroke-miterlimit="10" stroke-linecap="square"/>
<path d="M51.8034 25.5537C52.038 25.4357 52.2726 25.294 52.4603 25.0815C52.648 24.8926 52.7888 24.6564 52.8827 24.3967C52.9765 24.137 53 23.8536 53 23.5939C52.9765 23.3105 52.9061 23.0508 52.7888 22.8146C52.6715 22.5785 52.5073 22.366 52.2961 22.1771C52.0849 22.0118 51.8503 21.8701 51.5922 21.7993C51.3341 21.7285 51.076 21.7048 50.7944 21.7285C50.7709 21.7285 50.7475 21.7285 50.724 21.7285C50.6536 21.7285 50.5832 21.7521 50.5129 21.7757H50.4894C50.419 21.7993 50.3252 21.8229 50.2548 21.8701C50.2313 21.8701 50.2313 21.8937 50.2078 21.8937C50.1374 21.9174 50.0671 21.9646 50.0201 22.0118C50.0201 22.0118 49.9966 22.0118 49.9966 22.0354C49.8559 22.1299 49.7151 22.2479 49.5978 22.3896C49.4804 22.5313 49.3866 22.673 49.2927 22.8383H45.6089L44.295 12H42.4179L38.1944 28.3872L36.8335 22.5313H32V24.3022H35.4492L37.2559 32H39.086L43.0279 16.9351L44.0369 24.6092H49.2458C49.3162 24.7745 49.4335 24.9162 49.5508 25.0578C49.6682 25.1995 49.8089 25.294 49.9497 25.412C49.9497 25.412 49.9732 25.412 49.9732 25.4357C50.0436 25.4829 50.114 25.5065 50.1609 25.5537C50.1844 25.5537 50.1844 25.5773 50.2078 25.5773C50.2782 25.6009 50.3721 25.6482 50.4425 25.6718H50.4659C50.5363 25.6954 50.6067 25.6954 50.6771 25.719C50.7006 25.719 50.724 25.719 50.7475 25.719C50.8413 25.7426 50.9117 25.7426 51.0056 25.7426C51.2872 25.719 51.5453 25.6482 51.8034 25.5537Z" fill="#2534B6"/>
</svg>
