<svg width="32" height="32" viewBox="0 0 40 40" fill="none" xmlns="http://www.w3.org/2000/svg">
<path d="M20 24.9091C22.7112 24.9091 24.9091 22.7112 24.9091 20C24.9091 17.2888 22.7112 15.0909 20 15.0909C17.2888 15.0909 15.0909 17.2888 15.0909 20C15.0909 22.7112 17.2888 24.9091 20 24.9091Z" stroke="#FE334A" stroke-width="3" stroke-linecap="round" stroke-linejoin="round"/>
<path d="M32.1091 24.9091C31.8913 25.4026 31.8263 25.9501 31.9225 26.481C32.0188 27.0118 32.2718 27.5016 32.6491 27.8873L32.7473 27.9855C33.0516 28.2894 33.293 28.6503 33.4576 29.0476C33.6223 29.445 33.7071 29.8708 33.7071 30.3009C33.7071 30.731 33.6223 31.1569 33.4576 31.5542C33.293 31.9515 33.0516 32.3124 32.7473 32.6164C32.4433 32.9206 32.0824 33.162 31.6851 33.3267C31.2878 33.4914 30.8619 33.5762 30.4318 33.5762C30.0017 33.5762 29.5759 33.4914 29.1786 33.3267C28.7813 33.162 28.4203 32.9206 28.1164 32.6164L28.0182 32.5182C27.6325 32.1409 27.1427 31.8879 26.6119 31.7916C26.081 31.6954 25.5336 31.7604 25.04 31.9782C24.556 32.1856 24.1432 32.53 23.8525 32.9691C23.5618 33.4081 23.4057 33.9225 23.4036 34.4491V34.7273C23.4036 35.5953 23.0588 36.4277 22.4451 37.0414C21.8313 37.6552 20.9989 38 20.1309 38C19.2629 38 18.4305 37.6552 17.8167 37.0414C17.203 36.4277 16.8582 35.5953 16.8582 34.7273V34.58C16.8455 34.0384 16.6702 33.5131 16.355 33.0724C16.0398 32.6318 15.5994 32.2961 15.0909 32.1091C14.5974 31.8913 14.0499 31.8263 13.519 31.9225C12.9882 32.0188 12.4984 32.2718 12.1127 32.6491L12.0145 32.7473C11.7106 33.0516 11.3497 33.293 10.9523 33.4576C10.555 33.6223 10.1292 33.7071 9.69909 33.7071C9.269 33.7071 8.84313 33.6223 8.44583 33.4576C8.04853 33.293 7.68758 33.0516 7.38364 32.7473C7.07935 32.4433 6.83796 32.0824 6.67326 31.6851C6.50856 31.2878 6.42379 30.8619 6.42379 30.4318C6.42379 30.0017 6.50856 29.5759 6.67326 29.1786C6.83796 28.7813 7.07935 28.4203 7.38364 28.1164L7.48182 28.0182C7.85906 27.6325 8.11212 27.1427 8.20837 26.6119C8.30462 26.081 8.23964 25.5336 8.02182 25.04C7.81439 24.556 7.46996 24.1432 7.03094 23.8525C6.59192 23.5618 6.07747 23.4057 5.55091 23.4036H5.27273C4.40475 23.4036 3.57232 23.0588 2.95856 22.4451C2.3448 21.8313 2 20.9989 2 20.1309C2 19.2629 2.3448 18.4305 2.95856 17.8167C3.57232 17.203 4.40475 16.8582 5.27273 16.8582H5.42C5.96163 16.8455 6.48692 16.6702 6.92758 16.355C7.36824 16.0398 7.7039 15.5994 7.89091 15.0909C8.10873 14.5974 8.17371 14.0499 8.07746 13.519C7.98121 12.9882 7.72815 12.4984 7.35091 12.1127L7.25273 12.0145C6.94844 11.7106 6.70705 11.3497 6.54235 10.9523C6.37765 10.555 6.29288 10.1292 6.29288 9.69909C6.29288 9.269 6.37765 8.84313 6.54235 8.44583C6.70705 8.04853 6.94844 7.68758 7.25273 7.38364C7.55668 7.07935 7.91762 6.83796 8.31492 6.67326C8.71223 6.50856 9.13809 6.42379 9.56818 6.42379C9.99827 6.42379 10.4241 6.50856 10.8214 6.67326C11.2187 6.83796 11.5797 7.07935 11.8836 7.38364L11.9818 7.48182C12.3675 7.85906 12.8573 8.11212 13.3881 8.20837C13.919 8.30462 14.4664 8.23964 14.96 8.02182H15.0909C15.5749 7.81439 15.9877 7.46996 16.2784 7.03094C16.5691 6.59192 16.7252 6.07747 16.7273 5.55091V5.27273C16.7273 4.40475 17.0721 3.57232 17.6858 2.95856C18.2996 2.3448 19.132 2 20 2C20.868 2 21.7004 2.3448 22.3142 2.95856C22.9279 3.57232 23.2727 4.40475 23.2727 5.27273V5.42C23.2748 5.94656 23.4309 6.46101 23.7216 6.90003C24.0123 7.33905 24.4251 7.68348 24.9091 7.89091C25.4026 8.10873 25.9501 8.17371 26.481 8.07746C27.0118 7.98121 27.5016 7.72815 27.8873 7.35091L27.9855 7.25273C28.2894 6.94844 28.6503 6.70705 29.0476 6.54235C29.445 6.37765 29.8708 6.29288 30.3009 6.29288C30.731 6.29288 31.1569 6.37765 31.5542 6.54235C31.9515 6.70705 32.3124 6.94844 32.6164 7.25273C32.9206 7.55668 33.162 7.91762 33.3267 8.31492C33.4914 8.71223 33.5762 9.13809 33.5762 9.56818C33.5762 9.99827 33.4914 10.4241 33.3267 10.8214C33.162 11.2187 32.9206 11.5797 32.6164 11.8836L32.5182 11.9818C32.1409 12.3675 31.8879 12.8573 31.7916 13.3881C31.6954 13.919 31.7604 14.4664 31.9782 14.96V15.0909C32.1856 15.5749 32.53 15.9877 32.9691 16.2784C33.4081 16.5691 33.9225 16.7252 34.4491 16.7273H34.7273C35.5953 16.7273 36.4277 17.0721 37.0414 17.6858C37.6552 18.2996 38 19.132 38 20C38 20.868 37.6552 21.7004 37.0414 22.3142C36.4277 22.9279 35.5953 23.2727 34.7273 23.2727H34.58C34.0534 23.2748 33.539 23.4309 33.1 23.7216C32.6609 24.0123 32.3165 24.4251 32.1091 24.9091V24.9091Z" stroke="#FE334A" stroke-width="3" stroke-linecap="round" stroke-linejoin="round"/>
</svg>
