<svg width="32" height="30" viewBox="0 0 44 40" fill="none" xmlns="http://www.w3.org/2000/svg">
<path d="M38 10H6C3.79086 10 2 11.7909 2 14V34C2 36.2091 3.79086 38 6 38H38C40.2091 38 42 36.2091 42 34V14C42 11.7909 40.2091 10 38 10Z" stroke="#FE334A" stroke-width="3" stroke-linecap="round" stroke-linejoin="round"/>
<path d="M30 38V6C30 4.93913 29.5786 3.92172 28.8284 3.17157C28.0783 2.42143 27.0609 2 26 2H18C16.9391 2 15.9217 2.42143 15.1716 3.17157C14.4214 3.92172 14 4.93913 14 6V38" stroke="#FE334A" stroke-width="3" stroke-linecap="round" stroke-linejoin="round"/>
</svg>
